<svg width="1262" height="822" viewBox="0 0 1262 822" fill="none" xmlns="http://www.w3.org/2000/svg">
<path d="M0.5 495V345C1.16667 340.167 32.8 215.6 100 142C167.2 68.3999 219.667 28.3333 237.5 17.4999C258.5 11.1666 327.8 -1.10006 369 0.499942C409.054 2.05543 582.467 45.9532 781.366 48.3942C764.567 45.135 767.764 43.8796 798.5 48.5C792.77 48.5 787.057 48.4641 781.366 48.3942C806.379 53.2472 875.723 62.5428 964.5 63.5C1112.9 65.1 1208.33 152.167 1237.5 195.5C1247 210.667 1264.9 256.3 1260.5 317.5C1255 394 1258.5 374.5 1209 516C1169.4 629.2 1083.17 713.5 1045 741.5C1032.17 754.167 1033.5 772 919 793C838.132 807.832 823.5 772 644 821.5H527.5H451L369 793H298.5H224L147.5 741.5C131.667 738.167 78.5 707 63.5 626.5C53.1685 571.054 31 577 0.5 495Z" fill="#EBEBEB"/>
<path d="M317.31 100.901L308.13 203.573L266.945 215L225.842 203.601L216.69 100.901H317.31Z" fill="#E44D26"/>
<path d="M267 206.264L300.281 197.028L308.13 109.304H267V206.264Z" fill="#F16529"/>
<path d="M249.195 134.487H267V121.896H235.411L235.716 125.279L238.822 159.975H267V147.384H250.332L249.195 134.487Z" fill="#EBEBEB"/>
<path d="M252.023 166.271H239.377L241.152 186.045L266.944 193.229L267 193.201V180.11H266.944L252.911 176.311L252.023 166.271Z" fill="#EBEBEB"/>
<path d="M226.064 73H232.471V79.3234H238.323V73H244.702V92.1367H238.323V85.7301H232.471V92.1367H226.064V73Z" fill="black"/>
<path d="M253.133 79.3512H247.503V73H265.169V79.3512H259.539V92.1367H253.133V79.3512Z" fill="black"/>
<path d="M267.971 73H274.655L278.759 79.7395L282.864 73H289.52V92.1367H283.169V82.6516L278.759 89.4742H278.648L274.239 82.6516V92.1367H267.971V73Z" fill="black"/>
<path d="M292.71 73H299.116V85.8133H308.13V92.1367H292.71V73Z" fill="black"/>
<path d="M266.945 159.975H282.476L281.006 176.311L266.945 180.11V193.201L292.765 186.045L292.959 183.938L295.927 150.767L296.232 147.384H266.945V159.975Z" fill="white"/>
<path d="M266.945 134.459V134.487H297.369L297.619 131.658L298.201 125.279L298.506 121.896H266.945V134.459Z" fill="white"/>
<path d="M517.938 270L471.625 257.156L461.312 141.438H574.687L564.344 257.125L517.938 270Z" fill="#264DE4"/>
<path d="M555.5 249.75L564.344 150.906H518V260.156L555.5 249.75Z" fill="#2965F1"/>
<path d="M484.969 193.812L486.25 208H518V193.812H484.969Z" fill="#EBEBEB"/>
<path d="M482.406 165.094L483.719 179.281H518V165.094H482.406Z" fill="#EBEBEB"/>
<path d="M518 230.688H517.938L502.125 226.406L501.125 215.094H486.875L488.875 237.375L517.938 245.469L518 245.438V230.688Z" fill="#EBEBEB"/>
<path d="M488 110H505.188V117.188H495.188V124.375H505.188V131.562H488V110Z" fill="black"/>
<path d="M508.625 110H525.812V116.25H515.812V117.5H525.812V131.875H508.625V125.312H518.625V124.062H508.625V110Z" fill="black"/>
<path d="M529.25 110H546.438V116.25H536.438V117.5H546.438V131.875H529.25V125.312H539.25V124.062H529.25V110Z" fill="black"/>
<path d="M550.937 193.813L553.5 165.094H517.938V179.281H537.937L536.656 193.813H517.938V208H535.437L533.781 226.406L517.938 230.688V245.437L547.031 237.375L547.25 235L550.594 197.625L550.937 193.813Z" fill="white"/>
<path d="M462.324 481.324C475.758 481.324 486.648 470.434 486.648 457C486.648 443.566 475.758 432.676 462.324 432.676C448.89 432.676 438 443.566 438 457C438 470.434 448.89 481.324 462.324 481.324Z" fill="#19BCFE"/>
<path fill-rule="evenodd" clip-rule="evenodd" d="M413.676 530C427.107 530 438 519.107 438 505.676C438 501.998 438 493.899 438 481.352C427.079 481.352 418.952 481.352 413.676 481.352C400.245 481.352 389.352 492.245 389.352 505.676C389.352 519.107 400.217 530 413.676 530Z" fill="#09CF83"/>
<path fill-rule="evenodd" clip-rule="evenodd" d="M413.676 481.324C418.153 481.324 426.28 481.324 438 481.324V432.676C426.252 432.676 418.153 432.676 413.676 432.676C400.245 432.676 389.352 443.569 389.352 457C389.352 470.431 400.217 481.324 413.676 481.324Z" fill="#A259FF"/>
<path fill-rule="evenodd" clip-rule="evenodd" d="M413.676 432.676C418.153 432.676 426.28 432.676 438 432.676V384C426.252 384 418.153 384 413.676 384C400.245 384 389.352 394.893 389.352 408.324C389.352 421.755 400.217 432.676 413.676 432.676Z" fill="#F24E1E"/>
<path fill-rule="evenodd" clip-rule="evenodd" d="M462.324 432.676H438V384H462.324C475.755 384 486.648 394.893 486.648 408.324C486.648 421.755 475.783 432.676 462.324 432.676Z" fill="#FF7262"/>
<g clip-path="url(#clip0_404_129)">
<path d="M177 407.75C177 407.75 170.875 411.313 181.344 412.5C194.031 413.938 200.5 413.75 214.469 411.094C214.469 411.094 218.156 413.406 223.281 415.406C191.969 428.813 152.406 414.625 177 407.75Z" fill="#5382A1"/>
<path d="M173.188 390.219C173.188 390.219 166.344 395.281 176.813 396.375C190.344 397.781 201.063 397.875 219.563 394.313C219.563 394.313 222.125 396.906 226.156 398.312C188.25 409.406 146.063 399.219 173.188 390.219Z" fill="#5382A1"/>
<path d="M205.438 360.5C213.156 369.375 203.406 377.375 203.406 377.375C203.406 377.375 223 367.25 214 354.594C205.594 342.781 199.156 336.906 234.031 316.688C234.063 316.688 179.281 330.375 205.438 360.5Z" fill="#E76F00"/>
<path d="M246.875 420.688C246.875 420.688 251.406 424.406 241.906 427.313C223.813 432.781 166.656 434.438 150.781 427.531C145.063 425.063 155.781 421.594 159.156 420.875C162.656 420.125 164.688 420.25 164.688 420.25C158.344 415.781 123.656 429.031 147.063 432.813C210.875 443.188 263.438 428.156 246.875 420.688Z" fill="#5382A1"/>
<path d="M179.938 372.062C179.938 372.062 150.844 378.969 169.625 381.469C177.563 382.531 193.375 382.281 208.094 381.063C220.125 380.063 232.219 377.875 232.219 377.875C232.219 377.875 227.969 379.687 224.906 381.781C195.375 389.562 138.344 385.937 154.75 378C168.656 371.312 179.938 372.062 179.938 372.062Z" fill="#5382A1"/>
<path d="M232.094 401.219C262.125 385.625 248.219 370.625 238.531 372.656C236.156 373.156 235.094 373.594 235.094 373.594C235.094 373.594 235.969 372.219 237.656 371.625C256.812 364.875 271.563 391.5 231.469 402.031C231.5 402 231.969 401.594 232.094 401.219Z" fill="#5382A1"/>
<path d="M214 284C214 284 230.625 300.625 198.219 326.188C172.25 346.687 192.281 358.406 198.219 371.75C183.062 358.062 171.937 346.031 179.406 334.813C190.375 318.406 220.719 310.406 214 284Z" fill="#E76F00"/>
<path d="M182.906 443.5C211.719 445.344 255.969 442.469 257 428.844C257 428.844 255 434 233.188 438.125C208.594 442.75 178.25 442.219 160.281 439.25C160.281 439.219 163.969 442.281 182.906 443.5Z" fill="#5382A1"/>
</g>
<g clip-path="url(#clip1_404_129)">
<path d="M722 305H618V408H722V305Z" fill="#F7DF1E"/>
<path d="M645.341 391.081L653.303 386.314C654.847 389.009 656.228 391.283 659.58 391.283C662.789 391.283 664.82 390.035 664.82 385.207V352.296H674.591V385.348C674.591 395.366 668.659 399.933 660.006 399.933C652.186 399.933 647.656 395.91 645.341 391.081Z" fill="black"/>
<path d="M679.912 390.035L687.875 385.469C689.967 388.848 692.689 391.343 697.503 391.343C701.545 391.343 704.125 389.331 704.125 386.575C704.125 383.256 701.464 382.089 696.995 380.138L694.558 379.092C687.509 376.114 682.838 372.393 682.838 364.507C682.838 357.244 688.423 351.712 697.158 351.712C703.373 351.712 707.842 353.865 711.052 359.457L703.434 364.305C701.769 361.328 699.941 360.161 697.158 360.161C694.294 360.161 692.486 361.952 692.486 364.305C692.486 367.202 694.294 368.389 698.498 370.18L700.936 371.226C709.244 374.746 713.916 378.347 713.916 386.434C713.916 395.145 707.009 399.913 697.727 399.913C688.627 399.933 682.777 395.628 679.912 390.035Z" fill="black"/>
</g>
<path d="M1010.72 527.006C1009.36 526.545 1007.95 526.085 1006.5 525.675C1006.73 524.703 1006.96 523.731 1007.13 522.81C1010.33 507.304 1008.23 494.819 1001.12 490.725C994.291 486.785 983.11 490.904 971.826 500.729C970.752 501.676 969.651 502.673 968.577 503.722C967.86 503.032 967.118 502.366 966.402 501.727C954.581 491.211 942.709 486.785 935.596 490.929C928.765 494.819 926.744 506.562 929.609 521.249C929.891 522.656 930.223 524.114 930.582 525.598C928.893 526.085 927.281 526.571 925.746 527.134C911.853 531.944 903 539.517 903 547.398C903 555.508 912.518 563.67 926.948 568.608C928.1 568.992 929.277 569.376 930.479 569.709C930.096 571.295 929.737 572.856 929.456 574.391C926.718 588.821 928.867 600.284 935.673 604.198C942.709 608.267 954.504 604.096 965.993 594.041C966.888 593.248 967.809 592.403 968.73 591.533C969.907 592.685 971.084 593.759 972.261 594.757C983.391 604.326 994.393 608.215 1001.2 604.275C1008.23 600.207 1010.51 587.9 1007.54 572.932C1007.31 571.781 1007.06 570.63 1006.75 569.427C1007.57 569.171 1008.39 568.941 1009.18 568.66C1024.2 563.696 1033.97 555.636 1033.97 547.423C1034 539.492 1024.87 531.867 1010.72 527.006ZM1007.44 563.312C1006.73 563.542 1005.98 563.773 1005.24 564.003C1003.58 558.758 1001.35 553.18 998.615 547.398C1001.22 541.769 1003.37 536.268 1004.99 531.048C1006.32 531.432 1007.62 531.841 1008.87 532.276C1021 536.447 1028.4 542.613 1028.4 547.372C1028.4 552.464 1020.41 559.039 1007.44 563.312ZM1002.07 573.981C1003.37 580.608 1003.58 586.595 1002.71 591.278C1001.94 595.474 1000.35 598.288 998.41 599.414C994.291 601.793 985.463 598.697 975.92 590.51C974.82 589.563 973.72 588.565 972.619 587.516C976.304 583.474 979.988 578.792 983.596 573.572C989.941 573.009 995.903 572.088 1001.33 570.834C1001.63 571.883 1001.86 572.958 1002.07 573.981ZM947.673 599.004C943.63 600.437 940.432 600.463 938.488 599.363C934.343 596.983 932.629 587.772 934.982 575.44C935.238 574.033 935.571 572.574 935.929 571.09C941.302 572.267 947.238 573.137 953.583 573.649C957.217 578.74 961.003 583.448 964.841 587.542C963.997 588.361 963.178 589.128 962.334 589.845C957.242 594.246 952.151 597.418 947.673 599.004ZM928.765 563.287C922.369 561.112 917.098 558.272 913.49 555.176C910.241 552.387 908.603 549.624 908.603 547.398C908.603 542.639 915.716 536.549 927.588 532.404C929.021 531.893 930.53 531.432 932.091 530.997C933.729 536.319 935.878 541.897 938.488 547.551C935.852 553.282 933.678 558.937 932.014 564.336C930.889 563.977 929.814 563.645 928.765 563.287ZM935.11 520.174C932.654 507.586 934.292 498.094 938.385 495.714C942.761 493.181 952.458 496.789 962.666 505.872C963.332 506.46 963.971 507.049 964.637 507.688C960.824 511.782 957.063 516.439 953.481 521.505C947.315 522.068 941.43 522.989 936.006 524.217C935.648 522.835 935.366 521.505 935.11 520.174ZM991.604 534.119C990.299 531.867 988.969 529.692 987.613 527.569C991.783 528.106 995.8 528.797 999.561 529.667C998.436 533.274 997.028 537.061 995.365 540.95C994.188 538.698 992.935 536.421 991.604 534.119ZM968.551 511.68C971.135 514.469 973.72 517.59 976.253 520.993C973.694 520.865 971.084 520.814 968.474 520.814C965.89 520.814 963.306 520.865 960.773 520.993C963.332 517.641 965.941 514.52 968.551 511.68ZM945.37 534.17C944.065 536.421 942.837 538.673 941.66 540.95C940.023 537.087 938.641 533.274 937.49 529.615C941.225 528.771 945.217 528.106 949.362 527.569C948.006 529.718 946.675 531.918 945.37 534.17ZM949.515 567.611C945.217 567.124 941.174 566.485 937.439 565.666C938.59 561.93 940.023 558.041 941.686 554.101C942.863 556.378 944.091 558.63 945.396 560.881C946.726 563.184 948.108 565.41 949.515 567.611ZM968.705 583.499C966.044 580.634 963.408 577.461 960.824 574.058C963.332 574.161 965.89 574.212 968.5 574.212C971.161 574.212 973.822 574.161 976.406 574.033C973.847 577.487 971.289 580.659 968.705 583.499ZM995.416 553.896C997.156 557.888 998.64 561.751 999.817 565.41C996.03 566.28 991.911 566.971 987.587 567.483C988.943 565.333 990.299 563.107 991.604 560.805C992.96 558.528 994.239 556.225 995.416 553.896ZM986.768 558.041C984.721 561.598 982.623 564.975 980.474 568.173C976.585 568.455 972.568 568.583 968.474 568.583C964.406 568.583 960.44 568.455 956.603 568.199C954.377 564.95 952.227 561.547 950.206 558.041C948.185 554.536 946.317 551.005 944.628 547.474C946.317 543.944 948.185 540.413 950.206 536.907C952.227 533.402 954.351 530.025 956.551 526.801C960.44 526.494 964.432 526.34 968.474 526.34C972.543 526.34 976.534 526.494 980.423 526.801C982.598 529.999 984.696 533.377 986.743 536.882C988.79 540.438 990.683 543.944 992.397 547.398C990.709 550.954 988.815 554.511 986.768 558.041ZM998.333 495.561C1002.71 498.094 1004.42 508.302 1001.66 521.684C1001.48 522.528 1001.28 523.398 1001.07 524.294C995.647 523.04 989.736 522.119 983.545 521.53C979.937 516.413 976.227 511.756 972.466 507.714C973.464 506.742 974.487 505.821 975.485 504.951C985.156 496.507 994.214 493.181 998.333 495.561ZM968.5 535.679C974.973 535.679 980.193 540.924 980.193 547.372C980.193 553.845 974.948 559.065 968.5 559.065C962.052 559.065 956.807 553.82 956.807 547.372C956.807 540.924 962.052 535.679 968.5 535.679Z" fill="#00D8FF"/>
<g clip-path="url(#clip2_404_129)">
<path d="M337.816 603.885C337.816 601.839 337.376 600.031 336.486 598.48C335.613 596.954 334.304 595.675 332.549 594.664C318.062 586.354 303.561 578.069 289.078 569.751C285.174 567.509 281.388 567.59 277.513 569.865C271.746 573.248 242.876 589.702 234.273 594.659C230.73 596.7 229.006 599.822 229.006 603.881C229 620.593 229.006 637.304 229 654.017C229.001 656.018 229.422 657.79 230.272 659.318C231.146 660.89 232.473 662.204 234.269 663.238C242.872 668.195 271.746 684.648 277.511 688.032C281.388 690.308 285.174 690.389 289.079 688.146C303.562 679.827 318.064 671.543 332.554 663.233C334.349 662.2 335.676 660.885 336.55 659.314C337.399 657.786 337.821 656.013 337.822 654.012C337.822 654.012 337.822 620.597 337.816 603.885" fill="#5C8DBC"/>
<path d="M283.577 628.786L230.272 659.318C231.146 660.89 232.473 662.204 234.269 663.238C242.872 668.195 271.746 684.648 277.511 688.032C281.388 690.308 285.174 690.389 289.079 688.146C303.562 679.827 318.064 671.543 332.554 663.233C334.349 662.2 335.676 660.885 336.55 659.314L283.577 628.786" fill="#1A4674"/>
<path d="M267.789 637.83C270.891 643.217 276.722 646.85 283.411 646.85C290.141 646.85 296.006 643.171 299.092 637.726L283.577 628.786L267.789 637.83" fill="#1A4674"/>
<path d="M337.816 603.885C337.816 601.839 337.376 600.031 336.486 598.48L283.577 628.786L336.55 659.314C337.399 657.786 337.821 656.013 337.822 654.012C337.822 654.012 337.822 620.597 337.816 603.885" fill="#1B598E"/>
<path d="M334.904 630.968H330.764V635.087H326.624V630.968H322.485V626.851H326.624V622.733H330.764V626.851H334.904V630.968ZM319.799 630.968H315.66V635.087H311.521V630.968H307.381V626.851H311.521V622.733H315.66V626.851H319.799V630.968Z" fill="white"/>
<path d="M299.092 637.726C296.006 643.171 290.141 646.85 283.411 646.85C276.722 646.85 270.891 643.217 267.789 637.83C266.231 635.127 265.413 632.065 265.416 628.949C265.416 619.062 273.473 611.047 283.411 611.047C290.057 611.047 295.857 614.635 298.975 619.967L314.703 610.957C308.452 600.221 296.78 592.999 283.411 592.999C263.452 592.999 247.273 609.094 247.273 628.949C247.273 635.462 249.015 641.571 252.059 646.839C258.295 657.632 270 664.899 283.411 664.899C296.847 664.899 308.57 657.603 314.797 646.778L299.092 637.726Z" fill="white"/>
</g>
<g clip-path="url(#clip3_404_129)">
<path d="M915.5 392C913.822 392 912.286 391.555 910.821 390.781L896.027 382.062C893.805 380.844 894.916 380.398 895.578 380.187C898.579 379.203 899.146 378.969 902.242 377.211C902.573 377 903.022 377.094 903.353 377.328L914.696 384.055C915.146 384.266 915.689 384.266 916.02 384.055L960.402 358.601C960.851 358.391 961.064 357.945 961.064 357.383V306.57C961.064 306.008 960.851 305.586 960.402 305.351L916.067 279.992C915.618 279.781 915.075 279.781 914.744 279.992L870.361 305.351C869.912 305.562 869.7 306.125 869.7 306.57V357.383C869.7 357.828 869.912 358.367 870.361 358.601L882.485 365.539C889.055 368.844 893.167 364.976 893.167 361.133V310.976C893.167 310.32 893.734 309.664 894.49 309.664H900.162C900.824 309.664 901.486 310.226 901.486 310.976V361.133C901.486 369.851 896.712 374.914 888.37 374.914C885.817 374.914 883.808 374.914 878.137 372.148L866.462 365.539C863.579 363.875 861.783 360.805 861.783 357.5V306.664C861.783 303.359 863.555 300.266 866.462 298.625L910.821 273.148C913.609 271.601 917.391 271.601 920.156 273.148L964.514 298.625C967.398 300.289 969.194 303.359 969.194 306.664V357.476C969.194 360.781 967.421 363.875 964.514 365.516L920.179 391.016C918.714 391.672 917.06 392 915.5 392ZM929.183 357.055C909.734 357.055 905.74 348.242 905.74 340.742C905.74 340.086 906.307 339.43 907.063 339.43H912.853C913.515 339.43 914.082 339.875 914.082 340.531C914.98 346.367 917.532 349.25 929.302 349.25C938.637 349.25 942.63 347.164 942.63 342.195C942.63 339.336 941.52 337.226 926.962 335.797C914.838 334.578 907.276 331.93 907.276 322.344C907.276 313.414 914.838 308.117 927.505 308.117C941.732 308.117 948.728 312.969 949.626 323.562C949.626 323.891 949.508 324.219 949.295 324.547C949.082 324.758 948.728 324.992 948.397 324.992H942.607C942.04 324.992 941.496 324.547 941.378 324.008C940.054 317.937 936.604 315.969 927.482 315.969C917.249 315.969 916.044 319.508 916.044 322.133C916.044 325.32 917.485 326.328 931.263 328.086C944.946 329.844 951.375 332.375 951.375 341.867C951.304 351.547 943.292 357.055 929.183 357.055Z" fill="#539E43"/>
</g>
<path d="M860.342 424V404.4H864.094L875.658 418.512H873.838V404.4H878.318V424H874.594L863.002 409.888H864.822V424H860.342ZM889.815 424.224C888.21 424.224 886.782 423.888 885.531 423.216C884.299 422.544 883.319 421.629 882.591 420.472C881.882 419.296 881.527 417.961 881.527 416.468C881.527 414.956 881.882 413.621 882.591 412.464C883.319 411.288 884.299 410.373 885.531 409.72C886.782 409.048 888.21 408.712 889.815 408.712C891.402 408.712 892.82 409.048 894.071 409.72C895.322 410.373 896.302 411.279 897.011 412.436C897.72 413.593 898.075 414.937 898.075 416.468C898.075 417.961 897.72 419.296 897.011 420.472C896.302 421.629 895.322 422.544 894.071 423.216C892.82 423.888 891.402 424.224 889.815 424.224ZM889.815 420.64C890.543 420.64 891.196 420.472 891.775 420.136C892.354 419.8 892.811 419.324 893.147 418.708C893.483 418.073 893.651 417.327 893.651 416.468C893.651 415.591 893.483 414.844 893.147 414.228C892.811 413.612 892.354 413.136 891.775 412.8C891.196 412.464 890.543 412.296 889.815 412.296C889.087 412.296 888.434 412.464 887.855 412.8C887.276 413.136 886.81 413.612 886.455 414.228C886.119 414.844 885.951 415.591 885.951 416.468C885.951 417.327 886.119 418.073 886.455 418.708C886.81 419.324 887.276 419.8 887.855 420.136C888.434 420.472 889.087 420.64 889.815 420.64ZM907.463 424.224C906.044 424.224 904.765 423.907 903.627 423.272C902.488 422.619 901.583 421.713 900.911 420.556C900.257 419.399 899.931 418.036 899.931 416.468C899.931 414.881 900.257 413.509 900.911 412.352C901.583 411.195 902.488 410.299 903.627 409.664C904.765 409.029 906.044 408.712 907.463 408.712C908.732 408.712 909.843 408.992 910.795 409.552C911.747 410.112 912.484 410.961 913.007 412.1C913.529 413.239 913.791 414.695 913.791 416.468C913.791 418.223 913.539 419.679 913.035 420.836C912.531 421.975 911.803 422.824 910.851 423.384C909.917 423.944 908.788 424.224 907.463 424.224ZM908.219 420.64C908.928 420.64 909.572 420.472 910.151 420.136C910.729 419.8 911.187 419.324 911.523 418.708C911.877 418.073 912.055 417.327 912.055 416.468C912.055 415.591 911.877 414.844 911.523 414.228C911.187 413.612 910.729 413.136 910.151 412.8C909.572 412.464 908.928 412.296 908.219 412.296C907.491 412.296 906.837 412.464 906.259 412.8C905.68 413.136 905.213 413.612 904.859 414.228C904.523 414.844 904.355 415.591 904.355 416.468C904.355 417.327 904.523 418.073 904.859 418.708C905.213 419.324 905.68 419.8 906.259 420.136C906.837 420.472 907.491 420.64 908.219 420.64ZM912.167 424V420.92L912.251 416.44L911.971 411.988V403.224H916.339V424H912.167ZM927.857 424.224C926.14 424.224 924.628 423.888 923.321 423.216C922.033 422.544 921.035 421.629 920.325 420.472C919.616 419.296 919.261 417.961 919.261 416.468C919.261 414.956 919.607 413.621 920.297 412.464C921.007 411.288 921.968 410.373 923.181 409.72C924.395 409.048 925.767 408.712 927.297 408.712C928.772 408.712 930.097 409.029 931.273 409.664C932.468 410.28 933.411 411.176 934.101 412.352C934.792 413.509 935.137 414.9 935.137 416.524C935.137 416.692 935.128 416.888 935.109 417.112C935.091 417.317 935.072 417.513 935.053 417.7H922.817V415.152H932.757L931.077 415.908C931.077 415.124 930.919 414.443 930.601 413.864C930.284 413.285 929.845 412.837 929.285 412.52C928.725 412.184 928.072 412.016 927.325 412.016C926.579 412.016 925.916 412.184 925.337 412.52C924.777 412.837 924.339 413.295 924.021 413.892C923.704 414.471 923.545 415.161 923.545 415.964V416.636C923.545 417.457 923.723 418.185 924.077 418.82C924.451 419.436 924.964 419.912 925.617 420.248C926.289 420.565 927.073 420.724 927.969 420.724C928.772 420.724 929.472 420.603 930.069 420.36C930.685 420.117 931.245 419.753 931.749 419.268L934.073 421.788C933.383 422.572 932.515 423.179 931.469 423.608C930.424 424.019 929.22 424.224 927.857 424.224ZM949.895 424.336C948.57 424.336 947.347 424.093 946.227 423.608C945.126 423.104 944.22 422.395 943.511 421.48L946.031 418.456C946.572 419.165 947.142 419.707 947.739 420.08C948.336 420.435 948.98 420.612 949.671 420.612C951.519 420.612 952.443 419.529 952.443 417.364V408.04H945.555V404.4H956.951V417.112C956.951 419.539 956.354 421.349 955.159 422.544C953.964 423.739 952.21 424.336 949.895 424.336ZM966.191 424.224C964.903 424.224 963.662 424.075 962.467 423.776C961.291 423.459 960.358 423.067 959.667 422.6L961.123 419.464C961.814 419.893 962.626 420.248 963.559 420.528C964.511 420.789 965.445 420.92 966.359 420.92C967.367 420.92 968.077 420.799 968.487 420.556C968.917 420.313 969.131 419.977 969.131 419.548C969.131 419.193 968.963 418.932 968.627 418.764C968.31 418.577 967.881 418.437 967.339 418.344C966.798 418.251 966.201 418.157 965.547 418.064C964.913 417.971 964.269 417.849 963.615 417.7C962.962 417.532 962.365 417.289 961.823 416.972C961.282 416.655 960.843 416.225 960.507 415.684C960.19 415.143 960.031 414.443 960.031 413.584C960.031 412.632 960.302 411.792 960.843 411.064C961.403 410.336 962.206 409.767 963.251 409.356C964.297 408.927 965.547 408.712 967.003 408.712C968.03 408.712 969.075 408.824 970.139 409.048C971.203 409.272 972.09 409.599 972.799 410.028L971.343 413.136C970.615 412.707 969.878 412.417 969.131 412.268C968.403 412.1 967.694 412.016 967.003 412.016C966.033 412.016 965.323 412.147 964.875 412.408C964.427 412.669 964.203 413.005 964.203 413.416C964.203 413.789 964.362 414.069 964.679 414.256C965.015 414.443 965.454 414.592 965.995 414.704C966.537 414.816 967.125 414.919 967.759 415.012C968.413 415.087 969.066 415.208 969.719 415.376C970.373 415.544 970.961 415.787 971.483 416.104C972.025 416.403 972.463 416.823 972.799 417.364C973.135 417.887 973.303 418.577 973.303 419.436C973.303 420.369 973.023 421.2 972.463 421.928C971.903 422.637 971.091 423.197 970.027 423.608C968.982 424.019 967.703 424.224 966.191 424.224Z" fill="#3F3D56"/>
<path d="M928.242 651V631.4H936.726C938.481 631.4 939.993 631.689 941.262 632.268C942.531 632.828 943.511 633.64 944.202 634.704C944.893 635.768 945.238 637.037 945.238 638.512C945.238 639.968 944.893 641.228 944.202 642.292C943.511 643.337 942.531 644.14 941.262 644.7C939.993 645.26 938.481 645.54 936.726 645.54H930.762L932.778 643.552V651H928.242ZM940.702 651L935.802 643.888H940.646L945.602 651H940.702ZM932.778 644.056L930.762 641.928H936.474C937.874 641.928 938.919 641.629 939.61 641.032C940.301 640.416 940.646 639.576 940.646 638.512C940.646 637.429 940.301 636.589 939.61 635.992C938.919 635.395 937.874 635.096 936.474 635.096H930.762L932.778 632.94V644.056ZM956 651.224C954.282 651.224 952.77 650.888 951.464 650.216C950.176 649.544 949.177 648.629 948.468 647.472C947.758 646.296 947.404 644.961 947.404 643.468C947.404 641.956 947.749 640.621 948.44 639.464C949.149 638.288 950.11 637.373 951.324 636.72C952.537 636.048 953.909 635.712 955.44 635.712C956.914 635.712 958.24 636.029 959.416 636.664C960.61 637.28 961.553 638.176 962.244 639.352C962.934 640.509 963.28 641.9 963.28 643.524C963.28 643.692 963.27 643.888 963.252 644.112C963.233 644.317 963.214 644.513 963.196 644.7H950.96V642.152H960.9L959.22 642.908C959.22 642.124 959.061 641.443 958.744 640.864C958.426 640.285 957.988 639.837 957.428 639.52C956.868 639.184 956.214 639.016 955.468 639.016C954.721 639.016 954.058 639.184 953.48 639.52C952.92 639.837 952.481 640.295 952.164 640.892C951.846 641.471 951.688 642.161 951.688 642.964V643.636C951.688 644.457 951.865 645.185 952.22 645.82C952.593 646.436 953.106 646.912 953.76 647.248C954.432 647.565 955.216 647.724 956.112 647.724C956.914 647.724 957.614 647.603 958.212 647.36C958.828 647.117 959.388 646.753 959.892 646.268L962.216 648.788C961.525 649.572 960.657 650.179 959.612 650.608C958.566 651.019 957.362 651.224 956 651.224ZM975.018 651V648.06L974.738 647.416V642.152C974.738 641.219 974.448 640.491 973.87 639.968C973.31 639.445 972.442 639.184 971.266 639.184C970.463 639.184 969.67 639.315 968.886 639.576C968.12 639.819 967.467 640.155 966.926 640.584L965.358 637.532C966.179 636.953 967.168 636.505 968.326 636.188C969.483 635.871 970.659 635.712 971.854 635.712C974.15 635.712 975.932 636.253 977.202 637.336C978.471 638.419 979.106 640.108 979.106 642.404V651H975.018ZM970.426 651.224C969.25 651.224 968.242 651.028 967.402 650.636C966.562 650.225 965.918 649.675 965.47 648.984C965.022 648.293 964.798 647.519 964.798 646.66C964.798 645.764 965.012 644.98 965.442 644.308C965.89 643.636 966.59 643.113 967.542 642.74C968.494 642.348 969.735 642.152 971.266 642.152H975.27V644.7H971.742C970.715 644.7 970.006 644.868 969.614 645.204C969.24 645.54 969.054 645.96 969.054 646.464C969.054 647.024 969.268 647.472 969.698 647.808C970.146 648.125 970.752 648.284 971.518 648.284C972.246 648.284 972.899 648.116 973.478 647.78C974.056 647.425 974.476 646.912 974.738 646.24L975.41 648.256C975.092 649.227 974.514 649.964 973.674 650.468C972.834 650.972 971.751 651.224 970.426 651.224ZM990.448 651.224C988.824 651.224 987.378 650.897 986.108 650.244C984.839 649.572 983.84 648.648 983.112 647.472C982.403 646.296 982.048 644.961 982.048 643.468C982.048 641.956 982.403 640.621 983.112 639.464C983.84 638.288 984.839 637.373 986.108 636.72C987.378 636.048 988.824 635.712 990.448 635.712C992.035 635.712 993.416 636.048 994.592 636.72C995.768 637.373 996.636 638.316 997.196 639.548L993.808 641.368C993.416 640.659 992.922 640.136 992.324 639.8C991.746 639.464 991.111 639.296 990.42 639.296C989.674 639.296 989.002 639.464 988.404 639.8C987.807 640.136 987.331 640.612 986.976 641.228C986.64 641.844 986.472 642.591 986.472 643.468C986.472 644.345 986.64 645.092 986.976 645.708C987.331 646.324 987.807 646.8 988.404 647.136C989.002 647.472 989.674 647.64 990.42 647.64C991.111 647.64 991.746 647.481 992.324 647.164C992.922 646.828 993.416 646.296 993.808 645.568L997.196 647.416C996.636 648.629 995.768 649.572 994.592 650.244C993.416 650.897 992.035 651.224 990.448 651.224ZM1006.09 651.224C1004.32 651.224 1002.94 650.776 1001.95 649.88C1000.96 648.965 1000.46 647.612 1000.46 645.82V632.604H1004.83V645.764C1004.83 646.399 1005 646.893 1005.33 647.248C1005.67 647.584 1006.13 647.752 1006.71 647.752C1007.4 647.752 1007.98 647.565 1008.47 647.192L1009.65 650.272C1009.2 650.589 1008.66 650.832 1008.02 651C1007.41 651.149 1006.76 651.224 1006.09 651.224ZM998.138 639.632V636.272H1008.58V639.632H998.138Z" fill="#3F3D56"/>
<path d="M651.692 716.336C650.143 716.336 648.715 716.093 647.408 715.608C646.12 715.104 644.991 714.395 644.02 713.48C643.068 712.565 642.322 711.492 641.78 710.26C641.258 709.028 640.996 707.675 640.996 706.2C640.996 704.725 641.258 703.372 641.78 702.14C642.322 700.908 643.078 699.835 644.048 698.92C645.019 698.005 646.158 697.305 647.464 696.82C648.771 696.316 650.208 696.064 651.776 696.064C653.512 696.064 655.071 696.353 656.452 696.932C657.852 697.511 659.028 698.351 659.98 699.452L657.068 702.14C656.359 701.393 655.584 700.843 654.744 700.488C653.904 700.115 652.99 699.928 652 699.928C651.048 699.928 650.18 700.077 649.396 700.376C648.612 700.675 647.931 701.104 647.352 701.664C646.792 702.224 646.354 702.887 646.036 703.652C645.738 704.417 645.588 705.267 645.588 706.2C645.588 707.115 645.738 707.955 646.036 708.72C646.354 709.485 646.792 710.157 647.352 710.736C647.931 711.296 648.603 711.725 649.368 712.024C650.152 712.323 651.011 712.472 651.944 712.472C652.84 712.472 653.708 712.332 654.548 712.052C655.407 711.753 656.238 711.259 657.04 710.568L659.616 713.844C658.552 714.647 657.311 715.263 655.892 715.692C654.492 716.121 653.092 716.336 651.692 716.336ZM655.472 713.256V705.892H659.616V713.844L655.472 713.256ZM663.522 716V700.936H667.89V716H663.522ZM665.706 698.836C664.903 698.836 664.25 698.603 663.746 698.136C663.242 697.669 662.99 697.091 662.99 696.4C662.99 695.709 663.242 695.131 663.746 694.664C664.25 694.197 664.903 693.964 665.706 693.964C666.509 693.964 667.162 694.188 667.666 694.636C668.17 695.065 668.422 695.625 668.422 696.316C668.422 697.044 668.17 697.651 667.666 698.136C667.181 698.603 666.527 698.836 665.706 698.836ZM678.104 716.224C676.33 716.224 674.949 715.776 673.96 714.88C672.97 713.965 672.476 712.612 672.476 710.82V697.604H676.844V710.764C676.844 711.399 677.012 711.893 677.348 712.248C677.684 712.584 678.141 712.752 678.72 712.752C679.41 712.752 679.998 712.565 680.484 712.192L681.66 715.272C681.212 715.589 680.67 715.832 680.036 716C679.42 716.149 678.776 716.224 678.104 716.224ZM670.152 704.632V701.272H680.596V704.632H670.152Z" fill="#3F3D56"/>
<path d="M265.675 728.336C264.163 728.336 262.753 728.093 261.447 727.608C260.159 727.104 259.039 726.395 258.087 725.48C257.135 724.565 256.388 723.492 255.847 722.26C255.324 721.028 255.063 719.675 255.063 718.2C255.063 716.725 255.324 715.372 255.847 714.14C256.388 712.908 257.135 711.835 258.087 710.92C259.057 710.005 260.187 709.305 261.475 708.82C262.763 708.316 264.172 708.064 265.703 708.064C267.401 708.064 268.932 708.363 270.295 708.96C271.676 709.539 272.833 710.397 273.767 711.536L270.855 714.224C270.183 713.459 269.436 712.889 268.615 712.516C267.793 712.124 266.897 711.928 265.927 711.928C265.012 711.928 264.172 712.077 263.407 712.376C262.641 712.675 261.979 713.104 261.419 713.664C260.859 714.224 260.42 714.887 260.103 715.652C259.804 716.417 259.655 717.267 259.655 718.2C259.655 719.133 259.804 719.983 260.103 720.748C260.42 721.513 260.859 722.176 261.419 722.736C261.979 723.296 262.641 723.725 263.407 724.024C264.172 724.323 265.012 724.472 265.927 724.472C266.897 724.472 267.793 724.285 268.615 723.912C269.436 723.52 270.183 722.932 270.855 722.148L273.767 724.836C272.833 725.975 271.676 726.843 270.295 727.44C268.932 728.037 267.392 728.336 265.675 728.336ZM280.976 724.668V711.732H284.588V724.668H280.976ZM276.132 719.908V716.492H289.46V719.908H276.132ZM297.848 724.668V711.732H301.46V724.668H297.848ZM293.004 719.908V716.492H306.332V719.908H293.004Z" fill="#3F3D56"/>
<path d="M1040.87 299.296H1050.31V302.824H1040.87V299.296ZM1041.21 307.36H1051.88V311H1036.7V291.4H1051.51V295.04H1041.21V307.36ZM1053.11 311L1059.86 302.152L1059.77 304.56L1053.3 295.936H1058.2L1062.29 301.564L1060.44 301.62L1064.67 295.936H1069.32L1062.82 304.476V302.124L1069.54 311H1064.59L1060.3 305.008L1062.12 305.26L1057.87 311H1053.11ZM1080.57 311.224C1079.3 311.224 1078.19 310.944 1077.24 310.384C1076.28 309.824 1075.54 308.975 1075 307.836C1074.47 306.679 1074.21 305.223 1074.21 303.468C1074.21 301.695 1074.46 300.239 1074.97 299.1C1075.47 297.961 1076.2 297.112 1077.15 296.552C1078.1 295.992 1079.24 295.712 1080.57 295.712C1081.99 295.712 1083.26 296.039 1084.38 296.692C1085.52 297.327 1086.41 298.223 1087.06 299.38C1087.74 300.537 1088.07 301.9 1088.07 303.468C1088.07 305.055 1087.74 306.427 1087.06 307.584C1086.41 308.741 1085.52 309.637 1084.38 310.272C1083.26 310.907 1081.99 311.224 1080.57 311.224ZM1071.66 316.432V295.936H1075.84V299.016L1075.75 303.496L1076.03 307.948V316.432H1071.66ZM1079.81 307.64C1080.54 307.64 1081.18 307.472 1081.74 307.136C1082.32 306.8 1082.78 306.324 1083.12 305.708C1083.47 305.073 1083.65 304.327 1083.65 303.468C1083.65 302.591 1083.47 301.844 1083.12 301.228C1082.78 300.612 1082.32 300.136 1081.74 299.8C1081.18 299.464 1080.54 299.296 1079.81 299.296C1079.08 299.296 1078.43 299.464 1077.85 299.8C1077.27 300.136 1076.82 300.612 1076.48 301.228C1076.14 301.844 1075.98 302.591 1075.98 303.468C1075.98 304.327 1076.14 305.073 1076.48 305.708C1076.82 306.324 1077.27 306.8 1077.85 307.136C1078.43 307.472 1079.08 307.64 1079.81 307.64ZM1091 311V295.936H1095.17V300.192L1094.58 298.96C1095.03 297.896 1095.75 297.093 1096.74 296.552C1097.73 295.992 1098.93 295.712 1100.35 295.712V299.744C1100.16 299.725 1099.99 299.716 1099.84 299.716C1099.7 299.697 1099.54 299.688 1099.37 299.688C1098.17 299.688 1097.2 300.033 1096.46 300.724C1095.73 301.396 1095.36 302.451 1095.36 303.888V311H1091ZM1110.31 311.224C1108.59 311.224 1107.08 310.888 1105.78 310.216C1104.49 309.544 1103.49 308.629 1102.78 307.472C1102.07 306.296 1101.72 304.961 1101.72 303.468C1101.72 301.956 1102.06 300.621 1102.75 299.464C1103.46 298.288 1104.42 297.373 1105.64 296.72C1106.85 296.048 1108.22 295.712 1109.75 295.712C1111.23 295.712 1112.55 296.029 1113.73 296.664C1114.92 297.28 1115.87 298.176 1116.56 299.352C1117.25 300.509 1117.59 301.9 1117.59 303.524C1117.59 303.692 1117.58 303.888 1117.56 304.112C1117.55 304.317 1117.53 304.513 1117.51 304.7H1105.27V302.152H1115.21L1113.53 302.908C1113.53 302.124 1113.37 301.443 1113.06 300.864C1112.74 300.285 1112.3 299.837 1111.74 299.52C1111.18 299.184 1110.53 299.016 1109.78 299.016C1109.03 299.016 1108.37 299.184 1107.79 299.52C1107.23 299.837 1106.79 300.295 1106.48 300.892C1106.16 301.471 1106 302.161 1106 302.964V303.636C1106 304.457 1106.18 305.185 1106.53 305.82C1106.91 306.436 1107.42 306.912 1108.07 307.248C1108.74 307.565 1109.53 307.724 1110.42 307.724C1111.23 307.724 1111.93 307.603 1112.52 307.36C1113.14 307.117 1113.7 306.753 1114.2 306.268L1116.53 308.788C1115.84 309.572 1114.97 310.179 1113.92 310.608C1112.88 311.019 1111.67 311.224 1110.31 311.224ZM1125.57 311.224C1124.28 311.224 1123.04 311.075 1121.84 310.776C1120.67 310.459 1119.74 310.067 1119.04 309.6L1120.5 306.464C1121.19 306.893 1122 307.248 1122.94 307.528C1123.89 307.789 1124.82 307.92 1125.74 307.92C1126.74 307.92 1127.45 307.799 1127.86 307.556C1128.29 307.313 1128.51 306.977 1128.51 306.548C1128.51 306.193 1128.34 305.932 1128 305.764C1127.69 305.577 1127.26 305.437 1126.72 305.344C1126.18 305.251 1125.58 305.157 1124.92 305.064C1124.29 304.971 1123.65 304.849 1122.99 304.7C1122.34 304.532 1121.74 304.289 1121.2 303.972C1120.66 303.655 1120.22 303.225 1119.88 302.684C1119.57 302.143 1119.41 301.443 1119.41 300.584C1119.41 299.632 1119.68 298.792 1120.22 298.064C1120.78 297.336 1121.58 296.767 1122.63 296.356C1123.67 295.927 1124.92 295.712 1126.38 295.712C1127.41 295.712 1128.45 295.824 1129.52 296.048C1130.58 296.272 1131.47 296.599 1132.18 297.028L1130.72 300.136C1129.99 299.707 1129.26 299.417 1128.51 299.268C1127.78 299.1 1127.07 299.016 1126.38 299.016C1125.41 299.016 1124.7 299.147 1124.25 299.408C1123.8 299.669 1123.58 300.005 1123.58 300.416C1123.58 300.789 1123.74 301.069 1124.06 301.256C1124.39 301.443 1124.83 301.592 1125.37 301.704C1125.91 301.816 1126.5 301.919 1127.14 302.012C1127.79 302.087 1128.44 302.208 1129.1 302.376C1129.75 302.544 1130.34 302.787 1130.86 303.104C1131.4 303.403 1131.84 303.823 1132.18 304.364C1132.51 304.887 1132.68 305.577 1132.68 306.436C1132.68 307.369 1132.4 308.2 1131.84 308.928C1131.28 309.637 1130.47 310.197 1129.4 310.608C1128.36 311.019 1127.08 311.224 1125.57 311.224ZM1140.44 311.224C1139.16 311.224 1137.91 311.075 1136.72 310.776C1135.54 310.459 1134.61 310.067 1133.92 309.6L1135.38 306.464C1136.07 306.893 1136.88 307.248 1137.81 307.528C1138.76 307.789 1139.7 307.92 1140.61 307.92C1141.62 307.92 1142.33 307.799 1142.74 307.556C1143.17 307.313 1143.38 306.977 1143.38 306.548C1143.38 306.193 1143.22 305.932 1142.88 305.764C1142.56 305.577 1142.13 305.437 1141.59 305.344C1141.05 305.251 1140.45 305.157 1139.8 305.064C1139.16 304.971 1138.52 304.849 1137.87 304.7C1137.21 304.532 1136.62 304.289 1136.08 303.972C1135.53 303.655 1135.1 303.225 1134.76 302.684C1134.44 302.143 1134.28 301.443 1134.28 300.584C1134.28 299.632 1134.55 298.792 1135.1 298.064C1135.66 297.336 1136.46 296.767 1137.5 296.356C1138.55 295.927 1139.8 295.712 1141.26 295.712C1142.28 295.712 1143.33 295.824 1144.39 296.048C1145.46 296.272 1146.34 296.599 1147.05 297.028L1145.6 300.136C1144.87 299.707 1144.13 299.417 1143.38 299.268C1142.66 299.1 1141.95 299.016 1141.26 299.016C1140.28 299.016 1139.58 299.147 1139.13 299.408C1138.68 299.669 1138.46 300.005 1138.46 300.416C1138.46 300.789 1138.61 301.069 1138.93 301.256C1139.27 301.443 1139.71 301.592 1140.25 301.704C1140.79 301.816 1141.38 301.919 1142.01 302.012C1142.66 302.087 1143.32 302.208 1143.97 302.376C1144.62 302.544 1145.21 302.787 1145.74 303.104C1146.28 303.403 1146.72 303.823 1147.05 304.364C1147.39 304.887 1147.56 305.577 1147.56 306.436C1147.56 307.369 1147.28 308.2 1146.72 308.928C1146.16 309.637 1145.34 310.197 1144.28 310.608C1143.23 311.019 1141.96 311.224 1140.44 311.224ZM1157.06 316.656C1156.39 316.656 1155.74 316.581 1155.13 316.432C1154.51 316.301 1153.99 316.096 1153.56 315.816L1154.74 312.652C1155.24 313.007 1155.86 313.184 1156.58 313.184C1157.13 313.184 1157.55 312.997 1157.87 312.624C1158.21 312.269 1158.38 311.728 1158.38 311V295.936H1162.74V310.972C1162.74 312.708 1162.25 314.089 1161.26 315.116C1160.27 316.143 1158.87 316.656 1157.06 316.656ZM1160.56 293.836C1159.76 293.836 1159.1 293.603 1158.6 293.136C1158.1 292.669 1157.84 292.091 1157.84 291.4C1157.84 290.709 1158.1 290.131 1158.6 289.664C1159.1 289.197 1159.76 288.964 1160.56 288.964C1161.36 288.964 1162.02 289.188 1162.52 289.636C1163.02 290.065 1163.28 290.625 1163.28 291.316C1163.28 292.044 1163.02 292.651 1162.52 293.136C1162.03 293.603 1161.38 293.836 1160.56 293.836ZM1171.83 311.224C1170.55 311.224 1169.3 311.075 1168.11 310.776C1166.93 310.459 1166 310.067 1165.31 309.6L1166.77 306.464C1167.46 306.893 1168.27 307.248 1169.2 307.528C1170.15 307.789 1171.09 307.92 1172 307.92C1173.01 307.92 1173.72 307.799 1174.13 307.556C1174.56 307.313 1174.77 306.977 1174.77 306.548C1174.77 306.193 1174.61 305.932 1174.27 305.764C1173.95 305.577 1173.52 305.437 1172.98 305.344C1172.44 305.251 1171.84 305.157 1171.19 305.064C1170.56 304.971 1169.91 304.849 1169.26 304.7C1168.6 304.532 1168.01 304.289 1167.47 303.972C1166.92 303.655 1166.49 303.225 1166.15 302.684C1165.83 302.143 1165.67 301.443 1165.67 300.584C1165.67 299.632 1165.94 298.792 1166.49 298.064C1167.05 297.336 1167.85 296.767 1168.89 296.356C1169.94 295.927 1171.19 295.712 1172.65 295.712C1173.67 295.712 1174.72 295.824 1175.78 296.048C1176.85 296.272 1177.73 296.599 1178.44 297.028L1176.99 300.136C1176.26 299.707 1175.52 299.417 1174.77 299.268C1174.05 299.1 1173.34 299.016 1172.65 299.016C1171.68 299.016 1170.97 299.147 1170.52 299.408C1170.07 299.669 1169.85 300.005 1169.85 300.416C1169.85 300.789 1170 301.069 1170.32 301.256C1170.66 301.443 1171.1 301.592 1171.64 301.704C1172.18 301.816 1172.77 301.919 1173.4 302.012C1174.06 302.087 1174.71 302.208 1175.36 302.376C1176.02 302.544 1176.6 302.787 1177.13 303.104C1177.67 303.403 1178.11 303.823 1178.44 304.364C1178.78 304.887 1178.95 305.577 1178.95 306.436C1178.95 307.369 1178.67 308.2 1178.11 308.928C1177.55 309.637 1176.73 310.197 1175.67 310.608C1174.62 311.019 1173.35 311.224 1171.83 311.224Z" fill="#3F3D56"/>
<path d="M168.096 487.336C166.771 487.336 165.548 487.093 164.428 486.608C163.327 486.104 162.421 485.395 161.712 484.48L164.232 481.456C164.773 482.165 165.343 482.707 165.94 483.08C166.537 483.435 167.181 483.612 167.872 483.612C169.72 483.612 170.644 482.529 170.644 480.364V471.04H163.756V467.4H175.152V480.112C175.152 482.539 174.555 484.349 173.36 485.544C172.165 486.739 170.411 487.336 168.096 487.336ZM188.565 487V484.06L188.285 483.416V478.152C188.285 477.219 187.995 476.491 187.417 475.968C186.857 475.445 185.989 475.184 184.813 475.184C184.01 475.184 183.217 475.315 182.433 475.576C181.667 475.819 181.014 476.155 180.473 476.584L178.905 473.532C179.726 472.953 180.715 472.505 181.873 472.188C183.03 471.871 184.206 471.712 185.401 471.712C187.697 471.712 189.479 472.253 190.749 473.336C192.018 474.419 192.653 476.108 192.653 478.404V487H188.565ZM183.973 487.224C182.797 487.224 181.789 487.028 180.949 486.636C180.109 486.225 179.465 485.675 179.017 484.984C178.569 484.293 178.345 483.519 178.345 482.66C178.345 481.764 178.559 480.98 178.989 480.308C179.437 479.636 180.137 479.113 181.089 478.74C182.041 478.348 183.282 478.152 184.813 478.152H188.817V480.7H185.289C184.262 480.7 183.553 480.868 183.161 481.204C182.787 481.54 182.601 481.96 182.601 482.464C182.601 483.024 182.815 483.472 183.245 483.808C183.693 484.125 184.299 484.284 185.065 484.284C185.793 484.284 186.446 484.116 187.025 483.78C187.603 483.425 188.023 482.912 188.285 482.24L188.957 484.256C188.639 485.227 188.061 485.964 187.221 486.468C186.381 486.972 185.298 487.224 183.973 487.224ZM200.42 487L194.092 471.936H198.6L203.864 484.9H201.624L207.084 471.936H211.284L204.928 487H200.42ZM221.815 487V484.06L221.535 483.416V478.152C221.535 477.219 221.245 476.491 220.667 475.968C220.107 475.445 219.239 475.184 218.063 475.184C217.26 475.184 216.467 475.315 215.683 475.576C214.917 475.819 214.264 476.155 213.723 476.584L212.155 473.532C212.976 472.953 213.965 472.505 215.123 472.188C216.28 471.871 217.456 471.712 218.651 471.712C220.947 471.712 222.729 472.253 223.999 473.336C225.268 474.419 225.903 476.108 225.903 478.404V487H221.815ZM217.223 487.224C216.047 487.224 215.039 487.028 214.199 486.636C213.359 486.225 212.715 485.675 212.267 484.984C211.819 484.293 211.595 483.519 211.595 482.66C211.595 481.764 211.809 480.98 212.239 480.308C212.687 479.636 213.387 479.113 214.339 478.74C215.291 478.348 216.532 478.152 218.063 478.152H222.067V480.7H218.539C217.512 480.7 216.803 480.868 216.411 481.204C216.037 481.54 215.851 481.96 215.851 482.464C215.851 483.024 216.065 483.472 216.495 483.808C216.943 484.125 217.549 484.284 218.315 484.284C219.043 484.284 219.696 484.116 220.275 483.78C220.853 483.425 221.273 482.912 221.535 482.24L222.207 484.256C221.889 485.227 221.311 485.964 220.471 486.468C219.631 486.972 218.548 487.224 217.223 487.224Z" fill="#3F3D56"/>
<path d="M395.245 555.22H404.653V558.86H395.245V555.22ZM395.581 566H391.045V546.4H405.857V550.04H395.581V566ZM408.62 566V550.936H412.988V566H408.62ZM410.804 548.836C410.001 548.836 409.348 548.603 408.844 548.136C408.34 547.669 408.088 547.091 408.088 546.4C408.088 545.709 408.34 545.131 408.844 544.664C409.348 544.197 410.001 543.964 410.804 543.964C411.606 543.964 412.26 544.188 412.764 544.636C413.268 545.065 413.52 545.625 413.52 546.316C413.52 547.044 413.268 547.651 412.764 548.136C412.278 548.603 411.625 548.836 410.804 548.836ZM424.125 571.656C422.707 571.656 421.335 571.479 420.009 571.124C418.703 570.788 417.611 570.275 416.733 569.584L418.469 566.448C419.104 566.971 419.907 567.381 420.877 567.68C421.867 567.997 422.837 568.156 423.789 568.156C425.339 568.156 426.459 567.811 427.149 567.12C427.859 566.429 428.213 565.403 428.213 564.04V561.772L428.493 557.992L428.437 554.184V550.936H432.581V563.48C432.581 566.28 431.853 568.343 430.397 569.668C428.941 570.993 426.851 571.656 424.125 571.656ZM423.453 565.272C422.053 565.272 420.784 564.973 419.645 564.376C418.525 563.76 417.62 562.911 416.929 561.828C416.257 560.727 415.921 559.448 415.921 557.992C415.921 556.517 416.257 555.239 416.929 554.156C417.62 553.055 418.525 552.205 419.645 551.608C420.784 551.011 422.053 550.712 423.453 550.712C424.723 550.712 425.843 550.973 426.813 551.496C427.784 552 428.54 552.793 429.081 553.876C429.623 554.94 429.893 556.312 429.893 557.992C429.893 559.653 429.623 561.025 429.081 562.108C428.54 563.172 427.784 563.965 426.813 564.488C425.843 565.011 424.723 565.272 423.453 565.272ZM424.321 561.688C425.087 561.688 425.768 561.539 426.365 561.24C426.963 560.923 427.429 560.484 427.765 559.924C428.101 559.364 428.269 558.72 428.269 557.992C428.269 557.245 428.101 556.601 427.765 556.06C427.429 555.5 426.963 555.071 426.365 554.772C425.768 554.455 425.087 554.296 424.321 554.296C423.556 554.296 422.875 554.455 422.277 554.772C421.68 555.071 421.204 555.5 420.849 556.06C420.513 556.601 420.345 557.245 420.345 557.992C420.345 558.72 420.513 559.364 420.849 559.924C421.204 560.484 421.68 560.923 422.277 561.24C422.875 561.539 423.556 561.688 424.321 561.688ZM455.939 550.712C457.134 550.712 458.188 550.955 459.103 551.44C460.036 551.907 460.764 552.635 461.287 553.624C461.828 554.595 462.099 555.845 462.099 557.376V566H457.731V558.048C457.731 556.835 457.479 555.939 456.975 555.36C456.471 554.781 455.762 554.492 454.847 554.492C454.212 554.492 453.643 554.641 453.139 554.94C452.635 555.22 452.243 555.649 451.963 556.228C451.683 556.807 451.543 557.544 451.543 558.44V566H447.175V558.048C447.175 556.835 446.923 555.939 446.419 555.36C445.934 554.781 445.234 554.492 444.319 554.492C443.684 554.492 443.115 554.641 442.611 554.94C442.107 555.22 441.715 555.649 441.435 556.228C441.155 556.807 441.015 557.544 441.015 558.44V566H436.647V550.936H440.819V555.052L440.035 553.848C440.558 552.821 441.295 552.047 442.247 551.524C443.218 550.983 444.319 550.712 445.551 550.712C446.932 550.712 448.136 551.067 449.163 551.776C450.208 552.467 450.899 553.531 451.235 554.968L449.695 554.548C450.199 553.372 451.002 552.439 452.103 551.748C453.223 551.057 454.502 550.712 455.939 550.712ZM475.254 566V563.06L474.974 562.416V557.152C474.974 556.219 474.685 555.491 474.106 554.968C473.546 554.445 472.678 554.184 471.502 554.184C470.699 554.184 469.906 554.315 469.122 554.576C468.357 554.819 467.703 555.155 467.162 555.584L465.594 552.532C466.415 551.953 467.405 551.505 468.562 551.188C469.719 550.871 470.895 550.712 472.09 550.712C474.386 550.712 476.169 551.253 477.438 552.336C478.707 553.419 479.342 555.108 479.342 557.404V566H475.254ZM470.662 566.224C469.486 566.224 468.478 566.028 467.638 565.636C466.798 565.225 466.154 564.675 465.706 563.984C465.258 563.293 465.034 562.519 465.034 561.66C465.034 560.764 465.249 559.98 465.678 559.308C466.126 558.636 466.826 558.113 467.778 557.74C468.73 557.348 469.971 557.152 471.502 557.152H475.506V559.7H471.978C470.951 559.7 470.242 559.868 469.85 560.204C469.477 560.54 469.29 560.96 469.29 561.464C469.29 562.024 469.505 562.472 469.934 562.808C470.382 563.125 470.989 563.284 471.754 563.284C472.482 563.284 473.135 563.116 473.714 562.78C474.293 562.425 474.713 561.912 474.974 561.24L475.646 563.256C475.329 564.227 474.75 564.964 473.91 565.468C473.07 565.972 471.987 566.224 470.662 566.224Z" fill="#3F3D56"/>
<path d="M607.948 451.336C606.622 451.336 605.4 451.093 604.28 450.608C603.178 450.104 602.273 449.395 601.564 448.48L604.084 445.456C604.625 446.165 605.194 446.707 605.792 447.08C606.389 447.435 607.033 447.612 607.724 447.612C609.572 447.612 610.496 446.529 610.496 444.364V435.04H603.608V431.4H615.004V444.112C615.004 446.539 614.406 448.349 613.212 449.544C612.017 450.739 610.262 451.336 607.948 451.336ZM628.416 451V448.06L628.136 447.416V442.152C628.136 441.219 627.847 440.491 627.268 439.968C626.708 439.445 625.84 439.184 624.664 439.184C623.861 439.184 623.068 439.315 622.284 439.576C621.519 439.819 620.865 440.155 620.324 440.584L618.756 437.532C619.577 436.953 620.567 436.505 621.724 436.188C622.881 435.871 624.057 435.712 625.252 435.712C627.548 435.712 629.331 436.253 630.6 437.336C631.869 438.419 632.504 440.108 632.504 442.404V451H628.416ZM623.824 451.224C622.648 451.224 621.64 451.028 620.8 450.636C619.96 450.225 619.316 449.675 618.868 448.984C618.42 448.293 618.196 447.519 618.196 446.66C618.196 445.764 618.411 444.98 618.84 444.308C619.288 443.636 619.988 443.113 620.94 442.74C621.892 442.348 623.133 442.152 624.664 442.152H628.668V444.7H625.14C624.113 444.7 623.404 444.868 623.012 445.204C622.639 445.54 622.452 445.96 622.452 446.464C622.452 447.024 622.667 447.472 623.096 447.808C623.544 448.125 624.151 448.284 624.916 448.284C625.644 448.284 626.297 448.116 626.876 447.78C627.455 447.425 627.875 446.912 628.136 446.24L628.808 448.256C628.491 449.227 627.912 449.964 627.072 450.468C626.232 450.972 625.149 451.224 623.824 451.224ZM640.272 451L633.944 435.936H638.452L643.716 448.9H641.476L646.936 435.936H651.136L644.78 451H640.272ZM661.666 451V448.06L661.386 447.416V442.152C661.386 441.219 661.097 440.491 660.518 439.968C659.958 439.445 659.09 439.184 657.914 439.184C657.111 439.184 656.318 439.315 655.534 439.576C654.769 439.819 654.115 440.155 653.574 440.584L652.006 437.532C652.827 436.953 653.817 436.505 654.974 436.188C656.131 435.871 657.307 435.712 658.502 435.712C660.798 435.712 662.581 436.253 663.85 437.336C665.119 438.419 665.754 440.108 665.754 442.404V451H661.666ZM657.074 451.224C655.898 451.224 654.89 451.028 654.05 450.636C653.21 450.225 652.566 449.675 652.118 448.984C651.67 448.293 651.446 447.519 651.446 446.66C651.446 445.764 651.661 444.98 652.09 444.308C652.538 443.636 653.238 443.113 654.19 442.74C655.142 442.348 656.383 442.152 657.914 442.152H661.918V444.7H658.39C657.363 444.7 656.654 444.868 656.262 445.204C655.889 445.54 655.702 445.96 655.702 446.464C655.702 447.024 655.917 447.472 656.346 447.808C656.794 448.125 657.401 448.284 658.166 448.284C658.894 448.284 659.547 448.116 660.126 447.78C660.705 447.425 661.125 446.912 661.386 446.24L662.058 448.256C661.741 449.227 661.162 449.964 660.322 450.468C659.482 450.972 658.399 451.224 657.074 451.224ZM676.455 451.336C674.887 451.336 673.385 451.131 671.947 450.72C670.51 450.291 669.353 449.74 668.475 449.068L670.015 445.652C670.855 446.249 671.845 446.744 672.983 447.136C674.141 447.509 675.307 447.696 676.483 447.696C677.379 447.696 678.098 447.612 678.639 447.444C679.199 447.257 679.61 447.005 679.871 446.688C680.133 446.371 680.263 446.007 680.263 445.596C680.263 445.073 680.058 444.663 679.647 444.364C679.237 444.047 678.695 443.795 678.023 443.608C677.351 443.403 676.605 443.216 675.783 443.048C674.981 442.861 674.169 442.637 673.347 442.376C672.545 442.115 671.807 441.779 671.135 441.368C670.463 440.957 669.913 440.416 669.483 439.744C669.073 439.072 668.867 438.213 668.867 437.168C668.867 436.048 669.166 435.031 669.763 434.116C670.379 433.183 671.294 432.445 672.507 431.904C673.739 431.344 675.279 431.064 677.127 431.064C678.359 431.064 679.573 431.213 680.767 431.512C681.962 431.792 683.017 432.221 683.931 432.8L682.531 436.244C681.617 435.721 680.702 435.339 679.787 435.096C678.873 434.835 677.977 434.704 677.099 434.704C676.222 434.704 675.503 434.807 674.943 435.012C674.383 435.217 673.982 435.488 673.739 435.824C673.497 436.141 673.375 436.515 673.375 436.944C673.375 437.448 673.581 437.859 673.991 438.176C674.402 438.475 674.943 438.717 675.615 438.904C676.287 439.091 677.025 439.277 677.827 439.464C678.649 439.651 679.461 439.865 680.263 440.108C681.085 440.351 681.831 440.677 682.503 441.088C683.175 441.499 683.717 442.04 684.127 442.712C684.557 443.384 684.771 444.233 684.771 445.26C684.771 446.361 684.463 447.369 683.847 448.284C683.231 449.199 682.307 449.936 681.075 450.496C679.862 451.056 678.322 451.336 676.455 451.336ZM694.843 451.224C693.219 451.224 691.772 450.897 690.503 450.244C689.234 449.572 688.235 448.648 687.507 447.472C686.798 446.296 686.443 444.961 686.443 443.468C686.443 441.956 686.798 440.621 687.507 439.464C688.235 438.288 689.234 437.373 690.503 436.72C691.772 436.048 693.219 435.712 694.843 435.712C696.43 435.712 697.811 436.048 698.987 436.72C700.163 437.373 701.031 438.316 701.591 439.548L698.203 441.368C697.811 440.659 697.316 440.136 696.719 439.8C696.14 439.464 695.506 439.296 694.815 439.296C694.068 439.296 693.396 439.464 692.799 439.8C692.202 440.136 691.726 440.612 691.371 441.228C691.035 441.844 690.867 442.591 690.867 443.468C690.867 444.345 691.035 445.092 691.371 445.708C691.726 446.324 692.202 446.8 692.799 447.136C693.396 447.472 694.068 447.64 694.815 447.64C695.506 447.64 696.14 447.481 696.719 447.164C697.316 446.828 697.811 446.296 698.203 445.568L701.591 447.416C701.031 448.629 700.163 449.572 698.987 450.244C697.811 450.897 696.43 451.224 694.843 451.224ZM704.106 451V435.936H708.278V440.192L707.69 438.96C708.138 437.896 708.857 437.093 709.846 436.552C710.835 435.992 712.039 435.712 713.458 435.712V439.744C713.271 439.725 713.103 439.716 712.954 439.716C712.805 439.697 712.646 439.688 712.478 439.688C711.283 439.688 710.313 440.033 709.566 440.724C708.838 441.396 708.474 442.451 708.474 443.888V451H704.106ZM716.082 451V435.936H720.45V451H716.082ZM718.266 433.836C717.464 433.836 716.81 433.603 716.306 433.136C715.802 432.669 715.55 432.091 715.55 431.4C715.55 430.709 715.802 430.131 716.306 429.664C716.81 429.197 717.464 428.964 718.266 428.964C719.069 428.964 719.722 429.188 720.226 429.636C720.73 430.065 720.982 430.625 720.982 431.316C720.982 432.044 720.73 432.651 720.226 433.136C719.741 433.603 719.088 433.836 718.266 433.836ZM733.408 451.224C732.139 451.224 731.028 450.944 730.076 450.384C729.124 449.824 728.378 448.975 727.836 447.836C727.314 446.679 727.052 445.223 727.052 443.468C727.052 441.695 727.304 440.239 727.808 439.1C728.312 437.961 729.04 437.112 729.992 436.552C730.944 435.992 732.083 435.712 733.408 435.712C734.827 435.712 736.096 436.039 737.216 436.692C738.355 437.327 739.251 438.223 739.904 439.38C740.576 440.537 740.912 441.9 740.912 443.468C740.912 445.055 740.576 446.427 739.904 447.584C739.251 448.741 738.355 449.637 737.216 450.272C736.096 450.907 734.827 451.224 733.408 451.224ZM724.504 456.432V435.936H728.676V439.016L728.592 443.496L728.872 447.948V456.432H724.504ZM732.652 447.64C733.38 447.64 734.024 447.472 734.584 447.136C735.163 446.8 735.62 446.324 735.956 445.708C736.311 445.073 736.488 444.327 736.488 443.468C736.488 442.591 736.311 441.844 735.956 441.228C735.62 440.612 735.163 440.136 734.584 439.8C734.024 439.464 733.38 439.296 732.652 439.296C731.924 439.296 731.271 439.464 730.692 439.8C730.114 440.136 729.656 440.612 729.32 441.228C728.984 441.844 728.816 442.591 728.816 443.468C728.816 444.327 728.984 445.073 729.32 445.708C729.656 446.324 730.114 446.8 730.692 447.136C731.271 447.472 731.924 447.64 732.652 447.64ZM749.996 451.224C748.223 451.224 746.842 450.776 745.852 449.88C744.863 448.965 744.368 447.612 744.368 445.82V432.604H748.736V445.764C748.736 446.399 748.904 446.893 749.24 447.248C749.576 447.584 750.034 447.752 750.612 447.752C751.303 447.752 751.891 447.565 752.376 447.192L753.552 450.272C753.104 450.589 752.563 450.832 751.928 451C751.312 451.149 750.668 451.224 749.996 451.224ZM742.044 439.632V436.272H752.488V439.632H742.044Z" fill="#3F3D56"/>
<g clip-path="url(#clip4_404_129)">
<path fill-rule="evenodd" clip-rule="evenodd" d="M660.702 540.487C624.899 540.487 596 569.386 596 605.188C596 633.659 614.544 657.821 640.445 666.438C643.896 666.866 644.753 665.153 644.753 663.414V652.203C626.637 656.083 622.757 643.586 622.757 643.586C619.734 636.254 615.426 634.087 615.426 634.087C609.379 630.207 615.854 630.207 615.854 630.207C622.329 630.635 625.781 636.682 625.781 636.682C631.399 646.609 640.873 643.586 644.753 641.872C645.181 637.564 646.92 634.969 649.061 633.256C634.826 631.542 619.734 625.924 619.734 601.333C619.734 594.43 622.329 588.383 626.209 584.074C625.353 582.336 623.186 575.886 626.637 566.816C626.637 566.816 632.256 565.077 644.325 573.291C649.49 572.006 655.108 571.124 660.727 571.124C666.345 571.124 671.939 571.981 677.129 573.291C689.651 565.102 694.816 566.816 694.816 566.816C698.268 575.886 696.101 582.336 695.244 584.074C699.553 588.383 701.72 594.43 701.72 601.333C701.72 626.352 686.628 631.542 672.392 633.256C674.559 635.422 676.701 639.303 676.701 645.324V663.011C676.701 664.725 677.986 666.891 681.009 666.035C706.885 657.393 725 633.23 725 604.76C725.428 569.386 696.529 540.487 660.702 540.487Z" fill="#181616"/>
</g>
<g clip-path="url(#clip5_404_129)">
<path d="M1166 270.159C1161.53 271.291 1158.76 270.208 1156.28 266.499L1138.62 242.192L1136.06 238.826L1115.44 266.58C1113.09 269.919 1110.62 271.371 1106.22 270.19L1132.62 234.922L1108.04 203.064C1112.27 202.246 1115.19 202.662 1117.78 206.43L1136.1 231.04L1154.55 206.564C1156.91 203.225 1159.45 201.956 1163.7 203.186L1154.17 215.761L1141.25 232.492C1139.71 234.404 1139.92 235.713 1141.34 237.559L1166 270.159ZM1043.03 234.333L1045.19 223.762C1051.07 202.842 1075.17 194.149 1091.79 207.075C1101.51 214.678 1103.92 225.432 1103.44 237.479H1048.69C1047.87 259.163 1063.55 272.25 1083.55 265.573C1090.57 263.229 1094.7 257.763 1096.77 250.926C1097.82 247.5 1099.55 246.964 1102.79 247.943C1101.14 256.495 1097.41 263.638 1089.53 268.109C1077.76 274.801 1060.95 272.637 1052.11 263.336C1046.84 257.94 1044.67 251.103 1043.69 243.79C1043.54 242.581 1043.23 241.43 1043 240.272C1043.02 238.293 1043.03 236.315 1043.03 234.336V234.333V234.333ZM1048.79 232.88H1098.27C1097.94 217.2 1088.13 206.063 1074.72 205.968C1060 205.854 1049.43 216.725 1048.79 232.88H1048.79V232.88Z" fill="black"/>
</g>
<defs>
<clipPath id="clip0_404_129">
<rect width="160" height="160" fill="white" transform="translate(118 284)"/>
</clipPath>
<clipPath id="clip1_404_129">
<rect width="104" height="103" fill="white" transform="translate(618 305)"/>
</clipPath>
<clipPath id="clip2_404_129">
<rect width="109" height="122" fill="white" transform="translate(229 568)"/>
</clipPath>
<clipPath id="clip3_404_129">
<rect width="121" height="120" fill="white" transform="translate(855 272)"/>
</clipPath>
<clipPath id="clip4_404_129">
<rect width="129" height="129" fill="white" transform="translate(596 539)"/>
</clipPath>
<clipPath id="clip5_404_129">
<rect width="123" height="71" fill="white" transform="translate(1043 201)"/>
</clipPath>
</defs>
</svg>
