<?xml version="1.0" encoding="utf-8"?>
<!-- Generator: Adobe Illustrator 24.1.1, SVG Export Plug-In . SVG Version: 6.00 Build 0)  -->
<svg version="1.1" id="Layer_1" xmlns="http://www.w3.org/2000/svg" xmlns:xlink="http://www.w3.org/1999/xlink" x="0px" y="0px"
	 viewBox="0 0 512 512" style="enable-background:new 0 0 512 512;" xml:space="preserve">
<g>
	<path d="M92.3,346.6C66.8,327.6,35,305.3,0,279.9l124-47.7l50.9,38.2C136.8,314.9,111.4,330.8,92.3,346.6L92.3,346.6z M432.6,213.1
		c-9.6-25.4-15.9-50.9-25.5-76.3c-9.5-28.7-19-54.1-34.9-76.3c-6.4-9.5-19.1-31.8-35-31.8c-3.2,0-6.3,3.1-9.6,3.1
		c-9.5,3.3-22.3,22.3-25.4,35c-9.5,15.9-28.7,41.3-41.3,57.2c-3.2,6.3-9.6,12.8-12.8,15.9c-9.5,6.3-19.1,15.9-31.7,22.3
		c-3.3,0-6.4,3.1-9.6,3.1c-9.5,0-15.9,6.3-22.3,9.5c-9.5,9.6-19.1,22.3-28.6,31.9c0,3.2-3.3,6.3-6.4,9.6l47.8,34.9
		c35-41.3,76.3-82.7,104.9-162.2c0,0-9.5,85.9-85.8,178.1c-47.8,54.1-86,82.8-92.3,89.1c0,0,12.7-3.2,25.4,3.2
		c25.5,9.5,38.2,44.5,47.8,69.9c6.3,19.1,15.8,35,22.3,54.1c25.4-6.3,41.4-15.9,57.3-31.8c15.8-15.8,31.7-34.9,47.7-50.8
		c28.7-35,63.6-79.5,108.1-57.2c6.4,3.2,15.9,9.6,19.1,12.7c9.6,6.3,15.9,12.7,25.5,22.3c15.9,12.7,22.3,22.3,34.9,28.6
		C480.3,343.5,458,279.9,432.6,213.1L432.6,213.1z"/>
</g>
</svg>
