<svg width="178" height="57" viewBox="0 0 178 57" fill="none" xmlns="http://www.w3.org/2000/svg">
<path d="M25.1215 44.016L0.417538 28.016V21.488L25.1215 5.488V14L8.16154 24.624V24.88L25.1215 35.504V44.016ZM35.8485 46V4.272H50.6325C53.5765 4.272 56.2645 4.67733 58.6965 5.488C61.1285 6.256 63.0699 7.6 64.5205 9.52C66.0139 11.3973 66.7605 13.9787 66.7605 17.264C66.7605 20.464 66.0139 23.0667 64.5205 25.072C63.0699 27.0773 61.1285 28.5707 58.6965 29.552C56.2645 30.4907 53.5765 30.96 50.6325 30.96H45.2565V46H35.8485ZM45.2565 23.472H49.8645C52.3392 23.472 54.2165 22.96 55.4965 21.936C56.8192 20.8693 57.4805 19.312 57.4805 17.264C57.4805 15.216 56.8192 13.7867 55.4965 12.976C54.2165 12.1653 52.3392 11.76 49.8645 11.76H45.2565V23.472ZM48.9045 28.528L55.4325 22.448L68.7445 46H58.1845L48.9045 28.528ZM87.2155 46.768C84.9115 46.768 82.5009 46.256 79.9835 45.232C77.5089 44.208 75.3542 42.416 73.5195 39.856L78.9595 34.032C80.1542 35.5253 81.4342 36.6773 82.7995 37.488C84.1649 38.256 85.5302 38.64 86.8955 38.64C89.0289 38.64 90.6289 38.0853 91.6955 36.976C92.8049 35.8667 93.3595 33.8827 93.3595 31.024V12.144H77.0395V4.272H102.768V31.792C102.768 34.5227 102.256 37.0187 101.232 39.28C100.25 41.5413 98.6289 43.3547 96.3675 44.72C94.1489 46.0853 91.0982 46.768 87.2155 46.768ZM112.855 56.24L133.911 0.559998H141.783L120.727 56.24H112.855ZM152.766 44.016V35.504L169.726 24.88V24.624L152.766 14V5.488L177.47 21.488V28.016L152.766 44.016Z" fill="#3F3D56"/>
</svg>
