<svg width="538" height="493" viewBox="0 0 538 493" fill="none" xmlns="http://www.w3.org/2000/svg">
<g clip-path="url(#clip0_1_6)">
<path d="M485.082 256.565C485.152 317.569 462.739 376.225 422.555 420.204C420.132 422.873 417.644 425.477 415.091 428.017C411.201 431.91 407.18 435.652 403.028 439.243C364.192 472.906 315.709 491.822 265.4 492.94C263.724 492.98 262.041 493 260.352 493C220.23 493 169.766 470.454 123.97 439.243C120.181 436.661 116.426 434.019 112.705 431.318C110.965 430.067 109.234 428.798 107.512 427.511C89.8488 414.39 73.0832 399.98 57.3386 384.389C47.03 374.21 37.3632 363.336 28.3998 351.834C-6.78842 306.169 -14.5497 265.023 35.6171 256.565C41.5567 255.567 47.3212 254.5 52.9108 253.364C61.0073 251.727 68.756 249.959 76.1566 248.06C86.1255 245.512 95.4913 242.748 104.254 239.769C107.202 238.77 110.082 237.752 112.895 236.714C154.478 221.348 182.31 201.311 201.254 179.57C204.468 175.89 207.43 172.166 210.141 168.397C214.29 162.66 218.058 156.63 221.42 150.349C226.059 141.622 229.956 132.481 233.065 123.032L233.236 122.513C248.309 76.7684 243.723 34.338 260.353 20.1368C331.437 -40.574 419.936 45.8839 461.475 147.841C463.569 152.978 465.538 158.146 467.383 163.346C468.212 165.669 469.011 167.995 469.78 170.327C471.805 176.403 473.641 182.494 475.29 188.601C475.922 190.93 476.525 193.257 477.099 195.581C477.713 198.09 478.301 200.592 478.845 203.095C482.887 221.415 485.082 239.483 485.082 256.565Z" fill="#F2F2F2"/>
<path d="M265.4 492.94C263.724 492.98 262.041 493 260.353 493C220.23 493 169.766 470.454 123.97 439.243C120.181 436.661 116.426 434.019 112.705 431.318L115.969 410.422L214.778 396.62L264.369 436.515L265.4 492.94Z" fill="#2F2E41"/>
<path d="M270.157 119.818H256.077C255.64 119.818 255.222 120 254.914 120.325C254.605 120.649 254.432 121.089 254.432 121.548V136.368C254.432 136.595 254.475 136.819 254.558 137.029C254.641 137.238 254.762 137.428 254.915 137.588C255.067 137.748 255.248 137.875 255.448 137.962C255.647 138.048 255.861 138.092 256.077 138.091H270.157C270.592 138.092 271.009 137.91 271.318 137.587C271.626 137.264 271.8 136.826 271.802 136.368V121.548C271.8 121.089 271.627 120.65 271.318 120.326C271.01 120.002 270.593 119.819 270.157 119.818Z" fill="white"/>
<path d="M270.157 145.072H256.077C255.64 145.072 255.222 145.255 254.914 145.579C254.605 145.904 254.432 146.344 254.432 146.802V161.622C254.432 161.849 254.475 162.074 254.558 162.283C254.641 162.493 254.762 162.683 254.915 162.843C255.067 163.003 255.248 163.13 255.448 163.216C255.647 163.303 255.861 163.347 256.077 163.346H270.157C270.592 163.346 271.009 163.165 271.318 162.842C271.626 162.519 271.8 162.08 271.802 161.622V146.802C271.8 146.344 271.627 145.905 271.318 145.58C271.01 145.256 270.593 145.074 270.157 145.072Z" fill="#E6E6E6"/>
<path d="M270.157 170.327H256.077C255.64 170.327 255.222 170.51 254.914 170.834C254.605 171.158 254.432 171.598 254.432 172.057V186.871C254.432 187.098 254.474 187.323 254.556 187.533C254.639 187.743 254.76 187.934 254.913 188.095C255.066 188.256 255.247 188.383 255.447 188.47C255.646 188.557 255.86 188.601 256.077 188.601H270.157C270.593 188.601 271.011 188.418 271.32 188.094C271.628 187.769 271.801 187.329 271.802 186.871V172.057C271.8 171.599 271.627 171.159 271.318 170.835C271.01 170.511 270.593 170.328 270.157 170.327Z" fill="#E6E6E6"/>
<path d="M271.776 197.005C271.706 196.607 271.506 196.247 271.21 195.987C270.915 195.727 270.542 195.583 270.157 195.581H256.077C255.64 195.582 255.222 195.764 254.914 196.088C254.606 196.413 254.432 196.853 254.432 197.312V212.125C254.432 212.352 254.474 212.578 254.556 212.788C254.639 212.998 254.76 213.189 254.913 213.349C255.065 213.51 255.247 213.638 255.447 213.724C255.646 213.811 255.86 213.856 256.077 213.855H270.157C270.593 213.855 271.011 213.673 271.32 213.348C271.628 213.024 271.801 212.584 271.802 212.125V197.312C271.803 197.209 271.794 197.106 271.776 197.005Z" fill="#E6E6E6"/>
<path d="M270.796 220.969C270.593 220.881 270.376 220.836 270.157 220.836H256.077C255.86 220.835 255.646 220.88 255.447 220.967C255.247 221.054 255.066 221.181 254.913 221.342C254.76 221.502 254.639 221.693 254.556 221.904C254.474 222.114 254.432 222.339 254.432 222.566V237.38C254.431 237.607 254.473 237.833 254.555 238.043C254.638 238.253 254.759 238.444 254.912 238.605C255.064 238.766 255.246 238.894 255.446 238.98C255.646 239.067 255.86 239.111 256.077 239.11H270.157C270.593 239.11 271.011 238.927 271.32 238.603C271.628 238.278 271.801 237.838 271.802 237.38V222.566C271.801 222.226 271.705 221.893 271.526 221.609C271.348 221.325 271.094 221.103 270.796 220.969Z" fill="#E6E6E6"/>
<path d="M299.735 119.818H285.654C285.218 119.818 284.8 120 284.492 120.325C284.183 120.649 284.01 121.089 284.01 121.548V136.368C284.01 136.595 284.053 136.819 284.135 137.029C284.218 137.238 284.339 137.428 284.492 137.588C284.645 137.748 284.826 137.875 285.026 137.962C285.225 138.048 285.439 138.092 285.654 138.091H299.735C300.17 138.092 300.587 137.91 300.895 137.587C301.204 137.264 301.378 136.826 301.379 136.368V121.548C301.378 121.089 301.204 120.65 300.896 120.326C300.588 120.002 300.17 119.819 299.735 119.818Z" fill="#E6E6E6"/>
<path d="M299.735 145.072H285.654C285.218 145.072 284.8 145.255 284.492 145.579C284.183 145.904 284.01 146.344 284.01 146.802V161.622C284.01 161.849 284.053 162.074 284.135 162.283C284.218 162.493 284.339 162.683 284.492 162.843C284.645 163.003 284.826 163.13 285.026 163.216C285.225 163.303 285.439 163.347 285.654 163.346H299.735C300.17 163.346 300.587 163.165 300.895 162.842C301.204 162.519 301.378 162.08 301.379 161.622V146.802C301.378 146.344 301.204 145.905 300.896 145.58C300.588 145.256 300.17 145.074 299.735 145.072Z" fill="#6C63FF"/>
<path d="M299.735 170.327H285.654C285.218 170.327 284.8 170.51 284.492 170.834C284.183 171.158 284.01 171.598 284.01 172.057V186.871C284.009 187.098 284.051 187.323 284.134 187.533C284.216 187.743 284.338 187.934 284.49 188.095C284.643 188.256 284.825 188.383 285.024 188.47C285.224 188.557 285.438 188.601 285.654 188.601H299.735C300.171 188.601 300.589 188.418 300.897 188.094C301.206 187.769 301.379 187.329 301.379 186.871V172.057C301.378 171.599 301.204 171.159 300.896 170.835C300.588 170.511 300.17 170.328 299.735 170.327Z" fill="#6C63FF"/>
<path d="M299.735 195.581H285.654C285.309 195.582 284.973 195.696 284.694 195.909C284.415 196.121 284.206 196.421 284.098 196.766C284.04 196.941 284.01 197.126 284.01 197.312V212.125C284.009 212.352 284.051 212.577 284.134 212.788C284.216 212.998 284.338 213.189 284.49 213.349C284.643 213.51 284.825 213.638 285.024 213.724C285.224 213.811 285.438 213.856 285.654 213.855H299.735C300.171 213.855 300.589 213.673 300.897 213.348C301.206 213.024 301.379 212.584 301.379 212.125V197.312C301.378 196.853 301.204 196.414 300.896 196.09C300.588 195.765 300.17 195.583 299.735 195.581Z" fill="#6C63FF"/>
<path d="M299.735 220.836H285.654C285.438 220.835 285.224 220.88 285.024 220.967C284.825 221.054 284.643 221.181 284.49 221.342C284.338 221.502 284.216 221.693 284.134 221.904C284.051 222.114 284.009 222.339 284.01 222.566V237.38C284.009 237.607 284.051 237.832 284.134 238.042C284.216 238.252 284.338 238.443 284.49 238.604C284.643 238.765 284.825 238.892 285.024 238.979C285.224 239.066 285.438 239.11 285.654 239.11H299.735C300.171 239.11 300.589 238.927 300.897 238.603C301.206 238.278 301.379 237.838 301.379 237.38V222.566C301.379 222.107 301.206 221.667 300.897 221.343C300.589 221.018 300.171 220.836 299.735 220.836Z" fill="#E6E6E6"/>
<path d="M329.312 119.818H315.232C314.796 119.818 314.378 120 314.069 120.325C313.761 120.649 313.587 121.089 313.587 121.548V136.368C313.587 136.595 313.63 136.819 313.713 137.029C313.796 137.238 313.917 137.428 314.07 137.588C314.223 137.748 314.404 137.875 314.603 137.962C314.803 138.048 315.016 138.092 315.232 138.091H329.312C329.747 138.092 330.165 137.91 330.473 137.587C330.781 137.264 330.955 136.826 330.957 136.368V121.548C330.956 121.089 330.782 120.65 330.474 120.326C330.165 120.002 329.748 119.819 329.312 119.818Z" fill="#6C63FF"/>
<path d="M329.312 145.072H315.232C314.796 145.072 314.378 145.255 314.069 145.579C313.761 145.904 313.587 146.344 313.587 146.802V161.622C313.587 161.849 313.63 162.074 313.713 162.283C313.796 162.493 313.917 162.683 314.07 162.843C314.223 163.003 314.404 163.13 314.603 163.216C314.803 163.303 315.016 163.347 315.232 163.346H329.312C329.747 163.346 330.165 163.165 330.473 162.842C330.781 162.519 330.955 162.08 330.957 161.622V146.802C330.956 146.344 330.782 145.905 330.474 145.58C330.166 145.256 329.748 145.074 329.312 145.072Z" fill="#6C63FF"/>
<path d="M329.312 170.327H315.232C314.796 170.327 314.378 170.51 314.069 170.834C313.761 171.158 313.587 171.598 313.587 172.057V186.871C313.587 187.098 313.629 187.323 313.712 187.533C313.794 187.743 313.915 187.934 314.068 188.095C314.221 188.256 314.402 188.383 314.602 188.47C314.802 188.557 315.016 188.601 315.232 188.601H329.312C329.748 188.601 330.166 188.418 330.475 188.094C330.783 187.769 330.957 187.329 330.957 186.871V172.057C330.956 171.599 330.782 171.159 330.474 170.835C330.166 170.511 329.748 170.328 329.312 170.327Z" fill="#E6E6E6"/>
<path d="M329.312 195.581H315.232C314.796 195.582 314.378 195.764 314.069 196.088C313.761 196.413 313.587 196.853 313.587 197.312V212.125C313.587 212.352 313.629 212.578 313.712 212.788C313.794 212.998 313.915 213.189 314.068 213.349C314.221 213.51 314.402 213.638 314.602 213.724C314.802 213.811 315.016 213.856 315.232 213.855H329.312C329.748 213.855 330.166 213.673 330.475 213.348C330.783 213.024 330.957 212.584 330.957 212.125V197.312C330.956 196.853 330.782 196.414 330.474 196.09C330.166 195.765 329.748 195.583 329.312 195.581Z" fill="#6C63FF"/>
<path d="M329.312 220.836H315.232C315.016 220.835 314.802 220.88 314.602 220.967C314.402 221.054 314.221 221.181 314.068 221.342C313.915 221.502 313.794 221.693 313.712 221.904C313.629 222.114 313.587 222.339 313.587 222.566V237.38C313.587 237.607 313.629 237.832 313.712 238.042C313.794 238.252 313.915 238.443 314.068 238.604C314.221 238.765 314.402 238.892 314.602 238.979C314.802 239.066 315.016 239.11 315.232 239.11H329.312C329.748 239.11 330.166 238.927 330.475 238.603C330.783 238.278 330.957 237.838 330.957 237.38V222.566C330.957 222.107 330.783 221.667 330.475 221.343C330.166 221.018 329.748 220.836 329.312 220.836Z" fill="#6C63FF"/>
<path d="M358.89 119.818H344.809C344.373 119.818 343.955 120 343.647 120.325C343.338 120.649 343.165 121.089 343.165 121.548V136.368C343.165 136.595 343.208 136.819 343.291 137.029C343.373 137.238 343.495 137.428 343.647 137.588C343.8 137.748 343.981 137.875 344.181 137.962C344.38 138.048 344.594 138.092 344.809 138.091H358.89C359.325 138.092 359.742 137.91 360.051 137.587C360.359 137.264 360.533 136.826 360.534 136.368V121.548C360.533 121.089 360.359 120.65 360.051 120.326C359.743 120.002 359.326 119.819 358.89 119.818Z" fill="#6C63FF"/>
<path d="M358.89 145.072H344.809C344.373 145.072 343.955 145.255 343.647 145.579C343.338 145.904 343.165 146.344 343.165 146.802V161.622C343.165 161.849 343.208 162.074 343.291 162.283C343.373 162.493 343.495 162.683 343.647 162.843C343.8 163.003 343.981 163.13 344.181 163.216C344.38 163.303 344.594 163.347 344.809 163.346H358.89C359.325 163.346 359.742 163.165 360.051 162.842C360.359 162.519 360.533 162.08 360.534 161.622V146.802C360.533 146.344 360.359 145.905 360.051 145.58C359.743 145.256 359.326 145.074 358.89 145.072Z" fill="white"/>
<path d="M358.89 170.327H344.809C344.373 170.327 343.955 170.51 343.647 170.834C343.338 171.158 343.165 171.598 343.165 172.057V186.871C343.164 187.098 343.207 187.323 343.289 187.533C343.372 187.743 343.493 187.934 343.646 188.095C343.798 188.256 343.98 188.383 344.179 188.47C344.379 188.557 344.593 188.601 344.809 188.601H358.89C359.326 188.601 359.744 188.418 360.052 188.094C360.361 187.769 360.534 187.329 360.534 186.871V172.057C360.533 171.599 360.359 171.159 360.051 170.835C359.743 170.511 359.326 170.328 358.89 170.327Z" fill="white"/>
<path d="M358.89 195.581H344.809C344.373 195.582 343.955 195.764 343.647 196.088C343.338 196.413 343.165 196.853 343.165 197.312V212.125C343.164 212.352 343.207 212.578 343.289 212.788C343.372 212.998 343.493 213.189 343.646 213.349C343.798 213.51 343.98 213.638 344.179 213.724C344.379 213.811 344.593 213.856 344.809 213.855H358.89C359.326 213.855 359.744 213.673 360.052 213.348C360.361 213.024 360.534 212.584 360.534 212.125V197.312C360.533 196.853 360.359 196.414 360.051 196.09C359.743 195.765 359.326 195.583 358.89 195.581Z" fill="#E6E6E6"/>
<path d="M358.89 220.836H344.809C344.593 220.835 344.379 220.88 344.179 220.967C343.98 221.054 343.798 221.181 343.646 221.342C343.493 221.502 343.372 221.693 343.289 221.904C343.207 222.114 343.164 222.339 343.165 222.566V237.38C343.164 237.607 343.207 237.832 343.289 238.042C343.372 238.252 343.493 238.443 343.646 238.604C343.798 238.765 343.98 238.892 344.179 238.979C344.379 239.066 344.593 239.11 344.809 239.11H358.89C359.326 239.11 359.744 238.927 360.052 238.603C360.361 238.278 360.534 237.838 360.534 237.38V222.566C360.534 222.107 360.361 221.667 360.052 221.343C359.744 221.018 359.326 220.836 358.89 220.836Z" fill="#6C63FF"/>
<path d="M388.467 119.818H374.381C373.946 119.819 373.529 120.002 373.222 120.327C372.915 120.651 372.742 121.09 372.742 121.548V136.368C372.742 136.825 372.915 137.263 373.222 137.586C373.53 137.91 373.946 138.091 374.381 138.091H388.467C388.902 138.092 389.32 137.91 389.628 137.587C389.937 137.264 390.11 136.826 390.112 136.368V121.548C390.111 121.089 389.937 120.65 389.629 120.326C389.321 120.002 388.903 119.819 388.467 119.818Z" fill="white"/>
<path d="M388.467 145.072H374.381C373.946 145.074 373.529 145.257 373.222 145.581C372.915 145.906 372.742 146.345 372.742 146.802V161.622C372.742 162.08 372.915 162.518 373.222 162.841C373.53 163.164 373.946 163.346 374.381 163.346H388.467C388.902 163.346 389.32 163.165 389.628 162.842C389.937 162.519 390.11 162.08 390.112 161.622V146.802C390.111 146.344 389.937 145.905 389.629 145.58C389.321 145.256 388.903 145.074 388.467 145.072Z" fill="white"/>
<path d="M388.467 170.327H374.381C373.946 170.329 373.529 170.512 373.222 170.836C372.915 171.16 372.742 171.599 372.742 172.057V186.871C372.742 187.097 372.784 187.322 372.866 187.532C372.948 187.742 373.068 187.932 373.221 188.093C373.373 188.254 373.553 188.381 373.753 188.468C373.952 188.555 374.165 188.6 374.381 188.601H388.467C388.903 188.6 389.322 188.418 389.63 188.094C389.938 187.769 390.112 187.329 390.112 186.871V172.057C390.111 171.599 389.937 171.159 389.629 170.835C389.321 170.511 388.903 170.328 388.467 170.327Z" fill="white"/>
<path d="M388.467 195.581H374.381C373.946 195.583 373.529 195.766 373.222 196.09C372.915 196.415 372.742 196.854 372.742 197.312V212.125C372.742 212.352 372.784 212.577 372.866 212.786C372.948 212.996 373.068 213.187 373.22 213.347C373.373 213.508 373.553 213.636 373.753 213.723C373.952 213.81 374.165 213.855 374.381 213.855H388.467C388.903 213.855 389.322 213.673 389.63 213.348C389.938 213.024 390.112 212.584 390.112 212.125V197.312C390.111 196.853 389.937 196.414 389.629 196.09C389.321 195.765 388.903 195.583 388.467 195.581Z" fill="#6C63FF"/>
<path d="M388.467 220.836H374.381C374.165 220.836 373.952 220.881 373.753 220.968C373.553 221.055 373.373 221.183 373.22 221.344C373.068 221.504 372.948 221.695 372.866 221.905C372.784 222.115 372.742 222.339 372.742 222.566V237.38C372.742 237.606 372.784 237.831 372.866 238.041C372.948 238.251 373.068 238.441 373.22 238.602C373.373 238.763 373.553 238.89 373.753 238.977C373.952 239.065 374.165 239.11 374.381 239.11H388.467C388.903 239.11 389.322 238.927 389.63 238.603C389.938 238.278 390.112 237.838 390.112 237.38V222.566C390.112 222.107 389.938 221.667 389.63 221.343C389.322 221.018 388.903 220.836 388.467 220.836Z" fill="#E6E6E6"/>
<path d="M418.045 119.818H403.958C403.523 119.819 403.106 120.002 402.799 120.327C402.492 120.651 402.32 121.09 402.32 121.548V136.368C402.32 136.825 402.493 137.263 402.8 137.586C403.107 137.91 403.524 138.091 403.958 138.091H418.045C418.48 138.092 418.897 137.91 419.206 137.587C419.514 137.264 419.688 136.826 419.69 136.368V121.548C419.688 121.089 419.515 120.65 419.206 120.326C418.898 120.002 418.481 119.819 418.045 119.818Z" fill="white"/>
<path d="M418.045 145.072H403.958C403.523 145.074 403.106 145.257 402.799 145.581C402.492 145.906 402.32 146.345 402.32 146.802V161.622C402.32 162.08 402.493 162.518 402.8 162.841C403.107 163.164 403.524 163.346 403.958 163.346H418.045C418.48 163.346 418.897 163.165 419.206 162.842C419.514 162.519 419.688 162.08 419.69 161.622V146.802C419.688 146.344 419.515 145.905 419.206 145.581C418.898 145.256 418.481 145.074 418.045 145.072Z" fill="white"/>
<path d="M418.045 170.327H403.958C403.523 170.329 403.106 170.512 402.799 170.836C402.492 171.16 402.32 171.599 402.32 172.057V186.871C402.319 187.097 402.361 187.322 402.443 187.532C402.525 187.742 402.646 187.932 402.798 188.093C402.95 188.254 403.131 188.381 403.33 188.468C403.529 188.555 403.743 188.6 403.958 188.601H418.045C418.481 188.6 418.899 188.418 419.208 188.094C419.516 187.769 419.689 187.329 419.69 186.871V172.057C419.688 171.599 419.515 171.159 419.206 170.835C418.898 170.511 418.481 170.328 418.045 170.327Z" fill="#6C63FF"/>
<path d="M418.045 195.581H403.958C403.523 195.583 403.106 195.766 402.799 196.09C402.492 196.415 402.32 196.854 402.32 197.312V212.125C402.319 212.352 402.361 212.577 402.443 212.786C402.525 212.996 402.646 213.187 402.798 213.347C402.95 213.508 403.131 213.636 403.33 213.723C403.529 213.81 403.743 213.855 403.958 213.855H418.045C418.481 213.855 418.899 213.673 419.208 213.348C419.516 213.024 419.689 212.584 419.69 212.125V197.312C419.688 196.853 419.515 196.414 419.206 196.09C418.898 195.765 418.481 195.583 418.045 195.581Z" fill="#E6E6E6"/>
<path d="M418.045 220.836H403.958C403.743 220.836 403.529 220.881 403.33 220.968C403.131 221.055 402.95 221.183 402.798 221.344C402.646 221.504 402.525 221.695 402.443 221.905C402.361 222.115 402.319 222.339 402.32 222.566V237.38C402.319 237.606 402.361 237.831 402.443 238.041C402.525 238.251 402.646 238.441 402.798 238.602C402.95 238.763 403.131 238.89 403.33 238.977C403.529 239.065 403.743 239.11 403.958 239.11H418.045C418.481 239.11 418.899 238.927 419.208 238.603C419.516 238.278 419.689 237.838 419.69 237.38V222.566C419.689 222.107 419.516 221.667 419.208 221.343C418.899 221.019 418.481 220.836 418.045 220.836Z" fill="white"/>
<path d="M447.623 119.818H433.536C433.101 119.819 432.684 120.002 432.377 120.327C432.07 120.651 431.897 121.09 431.898 121.548V136.368C431.898 136.825 432.07 137.263 432.377 137.586C432.685 137.91 433.101 138.091 433.536 138.091H447.623C448.058 138.092 448.475 137.91 448.783 137.587C449.092 137.264 449.266 136.826 449.267 136.368V121.548C449.266 121.089 449.092 120.65 448.784 120.326C448.476 120.002 448.058 119.819 447.623 119.818Z" fill="#6C63FF"/>
<path d="M447.623 145.072H433.536C433.101 145.074 432.684 145.257 432.377 145.581C432.07 145.906 431.897 146.345 431.898 146.802V161.622C431.898 162.08 432.07 162.518 432.377 162.841C432.685 163.164 433.101 163.346 433.536 163.346H447.623C448.058 163.346 448.475 163.165 448.783 162.842C449.092 162.519 449.266 162.08 449.267 161.622V146.802C449.266 146.344 449.092 145.905 448.784 145.581C448.476 145.256 448.058 145.074 447.623 145.072Z" fill="#6C63FF"/>
<path d="M447.622 170.327H433.536C433.101 170.329 432.684 170.512 432.377 170.836C432.07 171.16 431.897 171.599 431.898 172.057V186.871C431.897 187.097 431.939 187.322 432.021 187.532C432.103 187.742 432.224 187.932 432.376 188.093C432.528 188.254 432.709 188.381 432.908 188.468C433.107 188.555 433.32 188.6 433.536 188.601H447.622C448.059 188.6 448.477 188.418 448.785 188.094C449.094 187.769 449.267 187.329 449.267 186.871V172.057C449.266 171.599 449.092 171.159 448.784 170.835C448.476 170.511 448.058 170.328 447.622 170.327Z" fill="#E6E6E6"/>
<path d="M447.622 195.581H433.536C433.101 195.583 432.684 195.766 432.377 196.09C432.07 196.415 431.897 196.854 431.898 197.312V212.125C431.897 212.352 431.939 212.577 432.021 212.786C432.103 212.996 432.224 213.187 432.376 213.347C432.528 213.508 432.709 213.636 432.908 213.723C433.107 213.81 433.32 213.855 433.536 213.855H447.622C448.059 213.855 448.477 213.673 448.785 213.348C449.094 213.024 449.267 212.584 449.267 212.125V197.312C449.266 196.853 449.092 196.414 448.784 196.09C448.476 195.765 448.058 195.583 447.622 195.581Z" fill="white"/>
<path d="M447.622 220.836H433.536C433.32 220.836 433.107 220.881 432.908 220.968C432.709 221.055 432.528 221.183 432.376 221.344C432.224 221.504 432.103 221.695 432.021 221.905C431.939 222.115 431.897 222.339 431.898 222.566V237.38C431.897 237.606 431.939 237.831 432.021 238.041C432.103 238.251 432.224 238.441 432.376 238.602C432.528 238.763 432.709 238.89 432.908 238.977C433.107 239.065 433.32 239.11 433.536 239.11H447.622C448.059 239.11 448.477 238.927 448.785 238.603C449.094 238.278 449.267 237.838 449.267 237.38V222.566C449.267 222.107 449.094 221.667 448.785 221.343C448.477 221.019 448.059 220.836 447.622 220.836Z" fill="#6C63FF"/>
<path d="M477.2 119.818H463.113C462.678 119.819 462.262 120.002 461.954 120.327C461.647 120.651 461.475 121.09 461.475 121.548V136.368C461.475 136.825 461.648 137.263 461.955 137.586C462.262 137.91 462.679 138.091 463.113 138.091H477.2C477.635 138.092 478.053 137.91 478.361 137.587C478.669 137.264 478.843 136.826 478.845 136.368V121.548C478.843 121.089 478.67 120.65 478.362 120.326C478.053 120.002 477.636 119.819 477.2 119.818Z" fill="#6C63FF"/>
<path d="M477.2 145.072H463.113C462.678 145.074 462.261 145.257 461.954 145.581C461.647 145.906 461.475 146.345 461.475 146.802V161.622C461.475 162.08 461.648 162.518 461.955 162.841C462.262 163.164 462.679 163.346 463.113 163.346H477.2C477.635 163.346 478.053 163.165 478.361 162.842C478.669 162.519 478.843 162.08 478.845 161.622V146.802C478.843 146.344 478.67 145.905 478.362 145.581C478.053 145.256 477.636 145.074 477.2 145.072Z" fill="#6C63FF"/>
<path d="M477.2 170.327H463.113C462.678 170.329 462.261 170.512 461.954 170.836C461.647 171.16 461.475 171.599 461.475 172.057V186.871C461.475 187.097 461.516 187.322 461.598 187.532C461.681 187.742 461.801 187.932 461.953 188.093C462.105 188.254 462.286 188.381 462.485 188.468C462.684 188.555 462.898 188.6 463.113 188.601H477.2C477.636 188.6 478.054 188.418 478.363 188.094C478.671 187.769 478.845 187.329 478.845 186.871V172.057C478.843 171.599 478.67 171.159 478.362 170.835C478.054 170.511 477.636 170.328 477.2 170.327Z" fill="#E6E6E6"/>
<path d="M477.2 195.581H463.113C462.678 195.583 462.262 195.766 461.954 196.09C461.647 196.415 461.475 196.854 461.475 197.312V212.125C461.475 212.352 461.516 212.577 461.598 212.786C461.681 212.996 461.801 213.187 461.953 213.347C462.105 213.508 462.286 213.636 462.485 213.723C462.684 213.81 462.898 213.855 463.113 213.855H477.2C477.636 213.855 478.054 213.673 478.363 213.348C478.671 213.024 478.845 212.584 478.845 212.125V197.312C478.843 196.853 478.67 196.414 478.362 196.09C478.053 195.765 477.636 195.583 477.2 195.581Z" fill="#6C63FF"/>
<path d="M477.2 220.836H463.113C462.898 220.836 462.684 220.881 462.485 220.968C462.286 221.055 462.105 221.183 461.953 221.344C461.801 221.504 461.681 221.695 461.598 221.905C461.516 222.115 461.475 222.339 461.475 222.566V237.38C461.475 237.606 461.516 237.831 461.598 238.041C461.681 238.251 461.801 238.441 461.953 238.602C462.105 238.763 462.286 238.89 462.485 238.977C462.684 239.065 462.898 239.11 463.113 239.11H477.2C477.636 239.11 478.054 238.927 478.363 238.603C478.671 238.278 478.845 237.838 478.845 237.38V222.566C478.845 222.107 478.671 221.667 478.363 221.343C478.054 221.019 477.636 220.836 477.2 220.836Z" fill="#6C63FF"/>
<path d="M506.778 119.818H492.691C492.256 119.819 491.839 120.002 491.532 120.327C491.225 120.651 491.053 121.09 491.053 121.548V136.368C491.053 136.825 491.226 137.263 491.533 137.586C491.84 137.91 492.257 138.091 492.691 138.091H506.778C507.213 138.092 507.63 137.91 507.939 137.587C508.247 137.264 508.421 136.826 508.422 136.368V121.548C508.421 121.089 508.247 120.65 507.939 120.326C507.631 120.002 507.213 119.819 506.778 119.818Z" fill="#E6E6E6"/>
<path d="M506.778 145.072H492.691C492.256 145.074 491.839 145.257 491.532 145.581C491.225 145.906 491.053 146.345 491.053 146.802V161.622C491.053 162.08 491.226 162.518 491.533 162.841C491.84 163.164 492.257 163.346 492.691 163.346H506.778C507.213 163.346 507.63 163.165 507.939 162.842C508.247 162.519 508.421 162.08 508.422 161.622V146.802C508.421 146.344 508.247 145.905 507.939 145.581C507.631 145.256 507.214 145.074 506.778 145.072Z" fill="#6C63FF"/>
<path d="M506.778 170.327H492.691C492.256 170.329 491.839 170.512 491.532 170.836C491.225 171.16 491.053 171.599 491.053 172.057V186.871C491.052 187.097 491.094 187.322 491.176 187.532C491.258 187.742 491.379 187.932 491.531 188.093C491.683 188.254 491.864 188.381 492.063 188.468C492.262 188.555 492.475 188.6 492.691 188.601H506.778C507.214 188.6 507.632 188.418 507.94 188.094C508.249 187.769 508.422 187.329 508.422 186.871V172.057C508.421 171.599 508.247 171.159 507.939 170.835C507.631 170.511 507.214 170.328 506.778 170.327Z" fill="#6C63FF"/>
<path d="M506.778 195.581H492.691C492.256 195.583 491.839 195.766 491.532 196.09C491.225 196.415 491.053 196.854 491.053 197.312V212.125C491.052 212.352 491.094 212.577 491.176 212.786C491.258 212.996 491.379 213.187 491.531 213.347C491.683 213.508 491.864 213.636 492.063 213.723C492.262 213.81 492.475 213.855 492.691 213.855H506.778C507.214 213.855 507.632 213.673 507.94 213.348C508.249 213.024 508.422 212.584 508.422 212.125V197.312C508.421 196.853 508.247 196.414 507.939 196.09C507.631 195.765 507.214 195.583 506.778 195.581Z" fill="#6C63FF"/>
<path d="M506.778 220.836H492.691C492.475 220.836 492.262 220.881 492.063 220.968C491.864 221.055 491.683 221.183 491.531 221.344C491.379 221.504 491.258 221.695 491.176 221.905C491.094 222.115 491.052 222.339 491.053 222.566V237.38C491.052 237.606 491.094 237.831 491.176 238.041C491.258 238.251 491.379 238.441 491.531 238.602C491.683 238.763 491.864 238.89 492.063 238.977C492.262 239.065 492.475 239.11 492.691 239.11H506.778C507.214 239.11 507.632 238.927 507.94 238.603C508.249 238.278 508.422 237.838 508.422 237.38V222.566C508.422 222.107 508.249 221.667 507.94 221.343C507.632 221.019 507.214 220.836 506.778 220.836Z" fill="#E6E6E6"/>
<path d="M536.355 119.818H522.269C521.834 119.819 521.417 120.002 521.11 120.327C520.803 120.651 520.63 121.09 520.63 121.548V136.368C520.63 136.825 520.803 137.263 521.11 137.586C521.418 137.91 521.834 138.091 522.269 138.091H536.355C536.791 138.092 537.208 137.91 537.516 137.587C537.825 137.264 537.998 136.826 538 136.368V121.548C537.999 121.089 537.825 120.65 537.517 120.326C537.209 120.002 536.791 119.819 536.355 119.818Z" fill="#E6E6E6"/>
<path d="M536.355 145.072H522.269C521.834 145.074 521.417 145.257 521.11 145.581C520.803 145.906 520.63 146.345 520.63 146.802V161.622C520.63 162.08 520.803 162.518 521.11 162.841C521.418 163.164 521.834 163.346 522.269 163.346H536.355C536.791 163.346 537.208 163.165 537.516 162.842C537.825 162.519 537.998 162.08 538 161.622V146.802C537.999 146.344 537.825 145.905 537.517 145.581C537.209 145.256 536.791 145.074 536.355 145.072Z" fill="#E6E6E6"/>
<path d="M536.355 170.327H522.269C521.834 170.329 521.417 170.512 521.11 170.836C520.803 171.16 520.63 171.599 520.63 172.057V186.871C520.63 187.097 520.672 187.322 520.754 187.532C520.836 187.742 520.956 187.932 521.109 188.093C521.261 188.254 521.441 188.381 521.641 188.468C521.84 188.555 522.053 188.6 522.269 188.601H536.355C536.791 188.6 537.21 188.418 537.518 188.094C537.826 187.769 538 187.329 538 186.871V172.057C537.999 171.599 537.825 171.159 537.517 170.835C537.209 170.511 536.791 170.328 536.355 170.327Z" fill="#6C63FF"/>
<path d="M536.355 195.581H522.269C521.834 195.583 521.417 195.766 521.11 196.09C520.803 196.415 520.63 196.854 520.63 197.312V212.125C520.63 212.352 520.672 212.577 520.754 212.786C520.836 212.996 520.956 213.187 521.109 213.347C521.261 213.508 521.441 213.636 521.641 213.723C521.84 213.81 522.053 213.855 522.269 213.855H536.355C536.791 213.855 537.21 213.673 537.518 213.348C537.826 213.024 538 212.584 538 212.125V197.312C537.999 196.853 537.825 196.414 537.517 196.09C537.209 195.765 536.791 195.583 536.355 195.581Z" fill="#E6E6E6"/>
<path d="M536.355 220.836H522.269C522.053 220.836 521.84 220.881 521.641 220.968C521.441 221.055 521.261 221.183 521.109 221.344C520.956 221.504 520.836 221.695 520.754 221.905C520.672 222.115 520.63 222.339 520.63 222.566V237.38C520.63 237.606 520.672 237.831 520.754 238.041C520.836 238.251 520.956 238.441 521.109 238.602C521.261 238.763 521.441 238.89 521.641 238.977C521.84 239.065 522.053 239.11 522.269 239.11H536.355C536.791 239.11 537.21 238.927 537.518 238.603C537.826 238.278 538 237.838 538 237.38V222.566C538 222.107 537.826 221.667 537.518 221.343C537.21 221.019 536.791 220.836 536.355 220.836Z" fill="#E6E6E6"/>
<path d="M212.594 439.244H212.202L212.537 439.198L212.594 439.244Z" fill="#2F2E41"/>
<path d="M178.892 163.077C202.759 163.077 222.108 142.721 222.108 117.61C222.108 92.5002 202.759 72.1443 178.892 72.1443C155.024 72.1443 135.675 92.5002 135.675 117.61C135.675 142.721 155.024 163.077 178.892 163.077Z" fill="#FFB6B6"/>
<path d="M216.738 84.2753C216.738 84.2753 228.041 61.5423 203.173 59.4756C203.173 59.4756 181.974 39.2438 160.366 55.7769C160.366 55.7769 148.579 55.7769 142.134 69.8088C142.134 69.8088 132.864 66.1101 130.827 76.0087C130.827 76.0087 124.044 96.6752 130.827 115.275C137.61 133.875 139.863 135.941 139.863 135.941C139.863 135.941 128.717 96.946 155.848 94.8793C182.978 92.8126 213.337 74.9755 215.598 97.7085C217.859 120.442 221.261 126.043 221.261 126.043C221.261 126.043 242.736 93.5753 216.738 84.2753Z" fill="#2F2E41"/>
<path d="M290.683 229.66L290.544 230.432L288.981 239.11L278.184 299.135L277.545 302.669L276.204 310.142L274.37 320.337L270.302 342.93L269.139 349.405L268.702 351.834L268.55 352.685L267.342 359.387L266.975 361.41L264.028 384.388L261.453 404.412L270.068 413.476L264.932 418.88L261.561 439.197L261.567 439.243H123.97C118.404 435.45 112.918 431.539 107.512 427.511L108.644 418.594C108.644 418.594 112.54 402.669 110.902 400.766C109.27 398.862 105.69 395.462 105.69 395.462L110.2 384.388L110.826 382.851L109.776 359.939L109.751 359.387L109.403 351.834L109.359 350.862L109.289 349.405L107.955 320.337L107.929 319.858L107.524 311.047L107.145 302.669L106.98 299.135L105.355 263.779L104.254 239.769L103.293 218.866L107.158 217.489L148.494 202.708L165.617 179.291L201.254 179.57L218.7 179.71L247.809 208.112L254.432 211.439L254.483 211.466L259.233 213.855L271.277 219.904L284.01 226.306L290.544 229.587L290.683 229.66Z" fill="#CACACA"/>
<path d="M170.222 371.034C167.611 372.098 164.809 372.547 162.015 372.349C159.221 372.151 156.502 371.311 154.049 369.888C151.597 368.465 149.471 366.493 147.821 364.112C146.172 361.731 145.038 358.999 144.501 356.107L77.098 346.047L100.529 318.162L160.944 331.991C165.621 331.363 170.355 332.562 174.248 335.361C178.141 338.16 180.923 342.364 182.067 347.176C183.21 351.989 182.636 357.076 180.453 361.473C178.27 365.87 174.63 369.272 170.222 371.034V371.034Z" fill="#FFB6B6"/>
<path d="M140.17 320.337C138.921 318.672 137.154 317.524 135.179 317.096L107.524 311.047L104.684 310.428C103.034 310.066 101.475 309.341 100.109 308.301C98.7429 307.261 97.6013 305.929 96.7585 304.392C95.8843 302.78 95.3554 300.985 95.2088 299.135C95.0769 297.453 95.2684 295.76 95.7717 294.158L105.355 263.779L111.573 244.068C112.326 241.69 112.771 239.217 112.895 236.714C113.241 229.789 111.204 222.963 107.157 217.489C103.6 212.677 98.6649 209.197 93.0824 207.562C87.5 205.927 81.5658 206.225 76.1566 208.412C75.9985 208.472 75.834 208.538 75.6759 208.605C71.7967 210.234 68.3309 212.791 65.5523 216.072C62.7738 219.353 60.7587 223.269 59.6663 227.511L52.9107 253.364L38.9759 306.662C37.5809 312.002 37.2991 317.596 38.1497 323.061C39.0003 328.526 40.9633 333.733 43.9042 338.326C46.8451 342.919 50.6946 346.79 55.1891 349.672C59.6836 352.555 64.7171 354.382 69.9451 355.028L109.776 359.939L128.208 362.215C130.34 362.485 132.489 361.899 134.229 360.576C135.969 359.253 137.171 357.289 137.595 355.075C137.625 354.954 137.648 354.832 137.665 354.709L138.108 351.834L141.859 327.624L141.897 327.378C142.092 326.142 142.039 324.878 141.742 323.665C141.444 322.452 140.909 321.319 140.17 320.337Z" fill="#CACACA"/>
<path d="M213.155 371.81C215.883 372.476 218.717 372.505 221.457 371.894C224.197 371.284 226.776 370.049 229.013 368.276C231.25 366.503 233.091 364.236 234.405 361.634C235.719 359.032 236.475 356.159 236.619 353.216L302 333.256L275.065 309.127L217.108 331.78C212.393 331.853 207.867 333.742 204.388 337.091C200.909 340.439 198.719 345.014 198.231 349.948C197.744 354.882 198.994 359.833 201.745 363.862C204.495 367.891 208.555 370.719 213.155 371.81V371.81Z" fill="#FFB6B6"/>
<path d="M334.461 288.608L303.365 213.316C300.822 207.135 296.279 202.101 290.544 199.108C288.771 198.19 286.909 197.476 284.99 196.979C284.693 196.899 284.395 196.826 284.098 196.766C280.029 195.832 275.809 195.914 271.776 197.006C268.09 198.002 264.644 199.805 261.664 202.296C258.684 204.788 256.237 207.913 254.483 211.466C254.463 211.496 254.446 211.527 254.432 211.559C252.472 215.549 251.43 219.966 251.389 224.457C251.348 228.947 252.31 233.385 254.198 237.413L254.584 238.225L276.558 284.655C277.309 286.242 277.731 287.979 277.799 289.751C277.866 291.522 277.577 293.289 276.95 294.935C276.323 296.581 275.372 298.068 274.16 299.3C272.948 300.532 271.502 301.481 269.917 302.083L268.373 302.669L240.617 313.217C238.535 313.998 236.821 315.6 235.839 317.684C234.856 319.768 234.68 322.172 235.348 324.39L235.418 324.623L243.198 350.816C243.236 350.936 243.274 351.055 243.318 351.175C243.387 351.401 243.471 351.621 243.571 351.834C244.398 353.785 245.86 355.362 247.693 356.28C249.526 357.199 251.611 357.399 253.572 356.845L268.55 352.686L271.605 351.834L310.285 341.087C315.375 339.672 320.114 337.116 324.177 333.596C328.241 330.075 331.533 325.672 333.829 320.688C336.125 315.705 337.37 310.258 337.479 304.721C337.588 299.184 336.559 293.687 334.461 288.607L334.461 288.608Z" fill="#CACACA"/>
<path d="M28.3998 351.834C37.3632 363.336 47.03 374.21 57.3386 384.389H343.228C345.982 384.393 348.623 385.547 350.57 387.596C352.517 389.646 353.612 392.424 353.614 395.322L354.025 471.539C371.613 463.037 388.084 452.183 403.028 439.243C407.178 435.656 411.199 431.914 415.091 428.017C417.64 425.475 420.128 422.87 422.555 420.204C440.749 400.263 455.482 377.124 466.086 351.834H28.3998Z" fill="#3F3D56"/>
<path d="M422.555 420.204C420.132 422.873 417.644 425.477 415.091 428.017H354.234V420.204H422.555Z" fill="white"/>
<path d="M290.114 170.327C289.813 169.743 289.368 169.256 288.826 168.916C288.284 168.576 287.664 168.397 287.033 168.397H79.661C78.7312 168.4 77.8403 168.79 77.1835 169.482C76.5267 170.174 76.1574 171.112 76.1567 172.09V302.669H290.544V172.09C290.547 171.473 290.399 170.866 290.114 170.327Z" fill="#3F3D56"/>
<path d="M75.9689 299.134V315.247C75.9689 315.915 76.0939 316.577 76.3369 317.194C76.5799 317.811 76.936 318.372 77.385 318.844C77.834 319.316 78.367 319.691 78.9536 319.947C79.5402 320.202 80.169 320.334 80.8039 320.334H159.933V352.135H158.881C158.799 352.135 158.717 352.152 158.641 352.185C158.565 352.218 158.496 352.267 158.437 352.328C158.379 352.389 158.333 352.462 158.301 352.542C158.27 352.623 158.253 352.709 158.253 352.795V355.007C158.253 355.094 158.27 355.18 158.301 355.26C158.333 355.34 158.379 355.413 158.437 355.474C158.496 355.536 158.565 355.585 158.641 355.618C158.717 355.651 158.799 355.668 158.881 355.668H208.004C208.086 355.668 208.168 355.651 208.244 355.618C208.32 355.585 208.389 355.536 208.448 355.474C208.506 355.413 208.552 355.34 208.584 355.26C208.615 355.18 208.632 355.094 208.632 355.007V352.795C208.632 352.709 208.615 352.623 208.584 352.542C208.552 352.462 208.506 352.389 208.448 352.328C208.389 352.267 208.32 352.218 208.244 352.185C208.168 352.152 208.086 352.135 208.004 352.135H206.952V320.334H286.081C286.716 320.334 287.345 320.202 287.931 319.947C288.518 319.691 289.051 319.316 289.5 318.844C289.949 318.372 290.305 317.811 290.548 317.194C290.791 316.577 290.916 315.915 290.916 315.247V299.134H75.9689Z" fill="#3F3D56"/>
<path d="M180.845 252.886C191.782 252.886 200.648 243.558 200.648 232.052C200.648 220.546 191.782 211.219 180.845 211.219C169.909 211.219 161.043 220.546 161.043 232.052C161.043 243.558 169.909 252.886 180.845 252.886Z" fill="#6C63FF"/>
<path d="M231.3 115.126H228.137C228.137 89.9713 204.474 73.4876 180.602 73.4743C177.13 73.4636 173.665 73.8181 170.26 74.5324C166.427 75.3376 162.448 76.3026 158.539 77.5603C143.124 82.5314 128.828 92.1408 128.828 115.126C128.825 119.59 129.365 124.036 130.435 128.356L127.373 129.194C126.238 124.6 125.664 119.873 125.666 115.126C125.666 95.0422 133.503 81.247 147.039 73.0218C154.155 68.6962 162.84 65.9079 172.79 64.5504C176.93 63.9708 181.116 63.8371 185.283 64.1511C212.735 66.2273 231.3 88.3742 231.3 115.126Z" fill="#6C63FF"/>
<path d="M236.569 116.969L235.323 107.28C235.015 104.833 233.895 102.58 232.16 100.918C231.046 99.8353 229.713 99.0328 228.261 98.5717C226.809 98.1105 225.276 98.0027 223.779 98.2565L221.799 98.5426C221.257 98.6176 220.735 98.8051 220.263 99.0941C219.791 99.3831 219.377 99.768 219.048 100.226C218.715 100.683 218.472 101.205 218.332 101.761C218.191 102.317 218.158 102.897 218.232 103.467L221.11 125.787C221.228 126.697 221.616 127.544 222.217 128.209C222.819 128.875 223.604 129.324 224.462 129.494C224.716 129.547 224.975 129.574 225.234 129.573C225.42 129.573 225.606 129.56 225.79 129.534L228.004 129.221C229.354 129.032 230.653 128.556 231.821 127.82C232.99 127.084 234.003 126.105 234.798 124.942C234.969 124.689 235.133 124.429 235.285 124.163C236.47 121.986 236.923 119.451 236.569 116.969Z" fill="#6C63FF"/>
<path d="M220.521 98.9485C219.941 99.2453 219.436 99.6833 219.048 100.226C218.715 100.683 218.472 101.204 218.332 101.761C218.191 102.317 218.158 102.897 218.232 103.467L221.11 125.787C221.228 126.697 221.616 127.544 222.217 128.209C222.819 128.874 223.604 129.324 224.462 129.494L220.521 98.9485Z" fill="white"/>
<path d="M236.569 116.969L235.323 107.28C235.016 104.833 233.895 102.58 232.16 100.918L235.026 123.125C235.069 123.481 235.156 123.83 235.285 124.163C236.471 121.986 236.923 119.451 236.569 116.969Z" fill="#3F3D56"/>
<path d="M226.721 123.951C227.586 123.827 228.021 121.66 227.692 119.111C227.364 116.562 226.396 114.595 225.53 114.719C224.665 114.842 224.23 117.009 224.558 119.558C224.887 122.108 225.855 124.074 226.721 123.951Z" fill="#3F3D56"/>
<path d="M224.823 111.972C225.688 111.849 226.123 109.682 225.795 107.133C225.466 104.583 224.498 102.617 223.632 102.74C222.767 102.864 222.332 105.031 222.661 107.58C222.989 110.129 223.958 112.096 224.823 111.972Z" fill="#3F3D56"/>
<path d="M236.841 116.63C237.707 116.507 238.142 114.34 237.813 111.791C237.484 109.241 236.516 107.275 235.651 107.398C234.785 107.522 234.35 109.689 234.679 112.238C235.008 114.787 235.976 116.754 236.841 116.63Z" fill="#3F3D56"/>
<path d="M180.602 73.4743C177.13 73.4636 173.665 73.8181 170.26 74.5324C166.427 75.3376 162.448 76.3026 158.539 77.5603C152.435 77.2475 147.944 75.5839 147.039 73.0218C154.155 68.6962 162.84 65.9079 172.79 64.5504C176.93 63.9708 181.116 63.8371 185.283 64.1511C185.724 64.4231 186.105 64.7902 186.402 65.2284C186.698 65.6665 186.903 66.1657 187.003 66.6932C187.3 69.009 184.789 71.4712 180.602 73.4743Z" fill="#3F3D56"/>
<path d="M140.22 138.218L135.35 116.916C135.176 116.148 134.79 115.45 134.241 114.911C133.692 114.373 133.004 114.017 132.263 113.888C132.054 113.854 131.842 113.836 131.63 113.835C131.332 113.836 131.035 113.874 130.745 113.948L128.86 114.427C126.433 115.045 124.338 116.65 123.035 118.891C121.731 121.131 121.326 123.824 121.908 126.379L124.091 135.935C124.589 138.185 125.776 140.2 127.468 141.672C127.743 141.905 128.03 142.12 128.329 142.317C129.389 143.016 130.572 143.485 131.807 143.695C133.042 143.905 134.305 143.853 135.521 143.542L137.399 143.062C137.896 142.941 138.363 142.712 138.772 142.39C139.379 141.924 139.841 141.279 140.099 140.536C140.357 139.793 140.399 138.986 140.22 138.218Z" fill="#6C63FF"/>
<path d="M130.01 134.254C130.859 134.04 131.083 131.838 130.511 129.336C129.939 126.835 128.787 124.981 127.938 125.196C127.089 125.411 126.864 127.613 127.436 130.115C128.008 132.616 129.161 134.469 130.01 134.254Z" fill="#3F3D56"/>
<path d="M123.684 136.251C124.533 136.036 124.758 133.834 124.186 131.333C123.614 128.831 122.462 126.978 121.612 127.193C120.763 127.408 120.539 129.61 121.111 132.111C121.683 134.612 122.835 136.466 123.684 136.251Z" fill="#3F3D56"/>
<path d="M140.53 138.138L135.66 116.836C135.47 116.005 135.051 115.251 134.456 114.668C133.861 114.086 133.116 113.701 132.314 113.562L138.962 142.657C139.618 142.151 140.118 141.452 140.397 140.647C140.676 139.843 140.722 138.97 140.53 138.138Z" fill="white"/>
<path d="M123.009 122.16C122.875 121.568 122.622 121.012 122.269 120.53C121.584 122.395 121.458 124.436 121.908 126.379L124.091 135.935C124.589 138.185 125.776 140.201 127.468 141.672L123.009 122.16Z" fill="#3F3D56"/>
</g>
<defs>
<clipPath id="clip0_1_6">
<rect width="538" height="493" fill="white"/>
</clipPath>
</defs>
</svg>
